<svg width="1167" height="308" viewBox="0 0 1167 308" fill="none" xmlns="http://www.w3.org/2000/svg">
<g opacity="0.35" filter="url(#filter0_f)">
<path d="M1791.95 1084.7C1815.84 1423.52 1434.15 1277.1 1262.71 1201.11C1075.27 1130.7 966.558 1132.62 873.587 936.347C780.617 740.07 633.774 825.363 491.167 567.925C348.561 310.486 461.117 120.183 839.478 131.167C1148.74 140.146 947.088 126.305 1487.71 -248.653C2028.32 -623.611 1742.8 -259.54 2089.36 -233.55C2435.93 -207.561 2298.44 378.441 2086.81 633.888C1875.17 889.334 1768.06 745.881 1791.95 1084.7Z" fill="#3448FF"/>
<path d="M1621.93 815.413C1635.05 1001.37 1425.7 920.987 1331.68 879.269C1228.87 840.616 1169.24 841.667 1118.24 733.94C1067.24 626.213 986.71 673.015 908.482 531.718C830.254 390.422 953.659 299.162 1153.35 356.01C1353.04 412.857 1158.51 289.374 1454.99 83.6201C1751.47 -122.134 1594.89 77.6604 1784.97 91.9443C1975.05 106.228 1899.68 427.832 1783.62 568.015C1667.56 708.197 1608.81 629.46 1621.93 815.413Z" fill="#84D3FF"/>
</g>
<defs>
<filter id="filter0_f" x="0.768341" y="-848.022" width="2730.69" height="2577.53" filterUnits="userSpaceOnUse" color-interpolation-filters="sRGB">
<feFlood flood-opacity="0" result="BackgroundImageFix"/>
<feBlend mode="normal" in="SourceGraphic" in2="BackgroundImageFix" result="shape"/>
<feGaussianBlur stdDeviation="215.427" result="effect1_foregroundBlur"/>
</filter>
</defs>
</svg>
