<svg width="370" height="453" viewBox="0 0 370 453" fill="none" xmlns="http://www.w3.org/2000/svg">
<g opacity="0.35" filter="url(#filter0_f)">
<path d="M444.239 761.938C459.025 889.386 312.499 840.636 246.512 814.878C174.579 791.501 133.591 794.079 95.1652 721.597C56.7397 649.114 2.78037 683.8 -55.4171 589.083C-113.615 494.366 -74.3818 420.638 68.5818 418.339C185.436 416.461 109.106 414.672 306.725 263.973C504.344 113.274 402.8 255.521 534.021 259.426C665.242 263.331 623.339 486.803 547.828 586.801C472.318 686.799 429.454 634.491 444.239 761.938Z" fill="#3448FF"/>
<path d="M375.497 663.218C383.615 733.165 303.248 706.398 267.055 692.257C227.601 679.422 205.121 680.834 184.041 641.051C162.96 601.268 133.368 620.301 101.442 568.314C69.5163 516.327 114.53 479.789 190.851 497.84C267.173 515.89 191.663 472.606 300.038 389.915C408.413 307.224 352.73 385.284 424.7 387.437C496.669 389.59 473.705 512.232 432.298 567.107C390.891 621.982 367.378 593.271 375.497 663.218Z" fill="#84D3FF"/>
</g>
<defs>
<filter id="filter0_f" x="-512.178" y="-235.961" width="1561.83" height="1512.69" filterUnits="userSpaceOnUse" color-interpolation-filters="sRGB">
<feFlood flood-opacity="0" result="BackgroundImageFix"/>
<feBlend mode="normal" in="SourceGraphic" in2="BackgroundImageFix" result="shape"/>
<feGaussianBlur stdDeviation="215.427" result="effect1_foregroundBlur"/>
</filter>
</defs>
</svg>
