<svg width="1200" height="2356" viewBox="0 0 1200 2356" fill="none" xmlns="http://www.w3.org/2000/svg">
<g opacity="0.3" filter="url(#filter0_f)">
<path d="M-458.758 1261.11C-622.404 973.85 -426.678 874.599 -227.165 729.635C-163.011 683.907 -134.569 760.157 -57.9631 733.098C18.6423 706.039 -106.708 504.518 46.7431 501.006C200.194 497.494 373.613 539.499 324.941 741.912C276.27 944.325 313.688 989.948 592.931 1066.84C872.173 1143.72 508.109 1301.92 576.942 1544.84C645.775 1787.77 163.359 1531.56 181.73 1744.49C200.102 1957.41 65.2684 1829.15 -290.719 1642.85C-646.707 1456.55 -295.112 1548.37 -458.758 1261.11Z" fill="#AA0033"/>
<path opacity="0.7" d="M-332.665 1289.84C-439.693 1082.7 -304.048 1006.78 -165.025 897.38C-120.337 862.85 -102.189 918.092 -49.3019 896.993C3.58477 875.894 -78.7158 730.761 26.3493 725.548C131.414 720.335 249.358 748.047 212.563 896.833C175.767 1045.62 200.585 1078.32 390.341 1129.7C580.097 1181.09 328.245 1302.99 371.158 1479.36C414.071 1655.74 88.3775 1476.79 97.2772 1632.1C106.177 1787.41 16.124 1695.99 -224.261 1565.96C-464.646 1435.93 -225.638 1496.98 -332.665 1289.84Z" fill="#FFC95F"/>
</g>
<defs>
<filter id="filter0_f" x="-1019.77" y="0.809082" width="2219.61" height="2354.24" filterUnits="userSpaceOnUse" color-interpolation-filters="sRGB">
<feFlood flood-opacity="0" result="BackgroundImageFix"/>
<feBlend mode="normal" in="SourceGraphic" in2="BackgroundImageFix" result="shape"/>
<feGaussianBlur stdDeviation="250" result="effect1_foregroundBlur"/>
</filter>
</defs>
</svg>
