<svg width="904" height="1557" viewBox="0 0 904 1557" fill="none" xmlns="http://www.w3.org/2000/svg">
<g opacity="0.35" filter="url(#filter0_f)">
<path d="M998.216 2115.7C1001.51 2498.81 1354.22 2290.87 1511.86 2185.99C1685.19 2085.55 1789.01 2075.31 1862.56 1844.34C1936.11 1613.37 2082.71 1692.37 2198.89 1387.08C2315.07 1081.78 2193.09 880.979 1833.12 936.491C1538.9 981.864 1730.13 943.312 1185.74 584.053C641.344 224.793 941.641 600.943 613.152 669.671C284.663 738.4 460.869 1380.6 682.343 1643.23C903.818 1905.86 994.924 1732.59 998.216 2115.7Z" fill="#3448FF"/>
<path d="M1139.62 1793.97C1141.42 2004.24 1334.87 1890.11 1421.33 1832.54C1516.39 1777.41 1573.33 1771.79 1613.67 1645.02C1654.02 1518.26 1734.42 1561.61 1798.14 1394.06C1861.87 1226.5 1737.16 1138.13 1551.11 1224.74C1365.06 1311.35 1541.07 1150.52 1242.5 953.355C943.943 756.196 1108.63 962.631 928.47 1000.36C748.311 1038.09 844.934 1390.54 966.394 1534.68C1087.85 1678.81 1137.83 1583.71 1139.62 1793.97Z" fill="#84D3FF"/>
</g>
<defs>
<filter id="filter0_f" x="0.954865" y="0.0163879" width="2671.3" height="2768.1" filterUnits="userSpaceOnUse" color-interpolation-filters="sRGB">
<feFlood flood-opacity="0" result="BackgroundImageFix"/>
<feBlend mode="normal" in="SourceGraphic" in2="BackgroundImageFix" result="shape"/>
<feGaussianBlur stdDeviation="215.427" result="effect1_foregroundBlur"/>
</filter>
</defs>
</svg>
