<svg width="1027" height="1057" viewBox="0 0 1027 1057" fill="none" xmlns="http://www.w3.org/2000/svg">
<g opacity="0.3" filter="url(#filter0_f)">
<path d="M-761.365 371.368C-717.793 3.24083 -338.479 238.154 -170.198 354.635C16.3865 468.396 133.327 488.529 192.922 717.943C252.517 947.357 427.365 885.899 527.686 1191.02C628.008 1496.14 468.476 1677.18 65.0759 1588.15C-264.65 1515.37 -51.2856 1571.39 -707.45 1862.99C-1363.61 2154.59 -983.158 1822.57 -1349.41 1723.94C-1715.65 1625.31 -1448.59 1025.13 -1169.54 794.477C-890.483 563.826 -804.937 739.496 -761.365 371.368Z" fill="#AA0033"/>
<path d="M-666.507 612.287C-637.593 367.881 -385.943 523.838 -274.299 601.169C-150.512 676.693 -72.9291 690.058 -33.3945 842.369C6.1402 994.679 122.143 953.873 188.696 1156.45C255.249 1359.02 72.6615 1446.89 -172.276 1323.84C-417.213 1200.79 -195.427 1408.99 -630.761 1602.6C-1066.1 1796.21 -813.679 1575.77 -1056.66 1510.29C-1299.65 1444.81 -1122.46 1046.34 -937.315 893.202C-752.173 740.065 -695.421 856.694 -666.507 612.287Z" fill="#FFC95F"/>
</g>
<defs>
<filter id="filter0_f" x="-1975.67" y="-288.854" width="3002.53" height="2754.52" filterUnits="userSpaceOnUse" color-interpolation-filters="sRGB">
<feFlood flood-opacity="0" result="BackgroundImageFix"/>
<feBlend mode="normal" in="SourceGraphic" in2="BackgroundImageFix" result="shape"/>
<feGaussianBlur stdDeviation="215.427" result="effect1_foregroundBlur"/>
</filter>
</defs>
</svg>
