<svg width="1009" height="1054" viewBox="0 0 1009 1054" fill="none" xmlns="http://www.w3.org/2000/svg">
<g opacity="0.3" filter="url(#filter0_f)">
<path d="M1369.49 575.587C1339.36 321.061 1077.1 483.482 960.753 564.017C831.748 642.672 750.895 656.592 709.69 815.21C668.485 973.828 547.595 931.336 478.232 1142.3C408.869 1353.26 519.17 1478.43 798.083 1416.87C1026.06 1366.56 878.536 1405.29 1332.21 1606.9C1785.89 1808.52 1522.84 1578.96 1776.06 1510.76C2029.29 1442.57 1844.64 1027.6 1651.7 868.126C1458.76 708.653 1399.62 830.112 1369.49 575.587Z" fill="#AA0033"/>
<path d="M1303.9 742.159C1283.91 573.175 1109.92 681.004 1032.73 734.472C947.142 786.69 893.501 795.93 866.166 901.239C838.832 1006.55 758.627 978.334 712.612 1118.39C666.597 1258.45 792.839 1319.21 962.19 1234.13C1131.54 1149.05 978.196 1293 1279.19 1426.86C1580.18 1560.73 1405.66 1408.31 1573.66 1363.04C1741.66 1317.77 1619.15 1042.27 1491.14 936.385C1363.13 830.506 1323.9 911.143 1303.9 742.159Z" fill="#FFC95F"/>
</g>
<defs>
<filter id="filter0_f" x="0.146271" y="-13.8537" width="2341.88" height="2170.41" filterUnits="userSpaceOnUse" color-interpolation-filters="sRGB">
<feFlood flood-opacity="0" result="BackgroundImageFix"/>
<feBlend mode="normal" in="SourceGraphic" in2="BackgroundImageFix" result="shape"/>
<feGaussianBlur stdDeviation="215.427" result="effect1_foregroundBlur"/>
</filter>
</defs>
</svg>
