<svg width="982" height="2112" viewBox="0 0 982 2112" fill="none" xmlns="http://www.w3.org/2000/svg">
<g opacity="0.3" filter="url(#filter0_f)">
<path d="M1342.49 568.587C1312.36 314.061 1050.1 476.482 933.753 557.017C804.748 635.672 723.895 649.592 682.69 808.21C641.485 966.828 520.595 924.336 451.232 1135.3C381.869 1346.26 492.17 1471.43 771.083 1409.87C999.058 1359.56 851.536 1398.29 1305.21 1599.9C1758.89 1801.52 1495.84 1571.96 1749.06 1503.76C2002.29 1435.57 1817.64 1020.6 1624.7 861.126C1431.76 701.653 1372.62 823.112 1342.49 568.587Z" fill="#AA0033"/>
<path d="M1276.9 735.159C1256.91 566.175 1082.92 674.004 1005.73 727.472C920.142 779.69 866.501 788.93 839.166 894.239C811.832 999.547 731.627 971.334 685.612 1111.39C639.597 1251.45 765.839 1312.21 935.19 1227.13C1104.54 1142.05 951.196 1286 1252.19 1419.86C1553.18 1553.73 1378.66 1401.31 1546.66 1356.04C1714.66 1310.77 1592.15 1035.27 1464.14 929.385C1336.13 823.506 1296.9 904.143 1276.9 735.159Z" fill="#FFC95F"/>
</g>
<defs>
<filter id="filter0_f" x="0.213654" y="0.509064" width="2303.09" height="2111.32" filterUnits="userSpaceOnUse" color-interpolation-filters="sRGB">
<feFlood flood-opacity="0" result="BackgroundImageFix"/>
<feBlend mode="normal" in="SourceGraphic" in2="BackgroundImageFix" result="shape"/>
<feGaussianBlur stdDeviation="215.427" result="effect1_foregroundBlur"/>
</filter>
</defs>
</svg>
