<svg width="1440" height="1057" viewBox="0 0 1440 1057" fill="none" xmlns="http://www.w3.org/2000/svg">
<g opacity="0.35" filter="url(#filter0_f)">
<path d="M1698.75 -832.03C1699.7 -1156.74 1345.08 -992.487 1186.46 -908.956C1012.21 -829.721 908.397 -824.553 832.369 -631.352C756.342 -438.151 610.786 -510.041 491.356 -255.305C371.927 -0.569589 491.547 173.69 851.722 138.831C1146.12 110.338 954.674 136.534 1494.48 459.333C2034.29 782.132 1738.49 453.279 2067.37 406.157C2396.25 359.036 2227.35 -191.037 2009.03 -421.045C1790.72 -651.053 1697.79 -507.324 1698.75 -832.03Z" fill="#3448FF"/>
<path d="M1553.94 -564.229C1554.47 -742.437 1359.97 -652.281 1272.98 -606.431C1177.41 -562.938 1120.47 -560.099 1078.77 -454.061C1037.07 -348.024 957.239 -387.475 891.729 -247.664C826.22 -107.854 949.805 -28.7625 1136.61 -95.8518C1323.41 -162.941 1145.82 -32.6268 1441.87 144.517C1737.91 321.661 1575.69 141.186 1756.07 115.313C1936.44 89.4403 1843.83 -212.45 1724.1 -338.678C1604.37 -464.906 1553.4 -386.02 1553.94 -564.229Z" fill="#84D3FF"/>
</g>
<defs>
<filter id="filter0_f" x="-33.8537" y="-1543.85" width="2814.84" height="2610.11" filterUnits="userSpaceOnUse" color-interpolation-filters="sRGB">
<feFlood flood-opacity="0" result="BackgroundImageFix"/>
<feBlend mode="normal" in="SourceGraphic" in2="BackgroundImageFix" result="shape"/>
<feGaussianBlur stdDeviation="215.427" result="effect1_foregroundBlur"/>
</filter>
</defs>
</svg>
