<svg width="1440" height="1037" viewBox="0 0 1440 1037" fill="none" xmlns="http://www.w3.org/2000/svg">
<g opacity="0.35" filter="url(#filter0_f)">
<path d="M-3.84911 -789.118C49.6872 -1109.38 371.727 -887.966 514.085 -779.006C672.571 -671.66 774.044 -649.149 816.58 -445.931C859.117 -242.713 1014.67 -289.164 1089.67 -18.0027C1164.67 253.159 1017.51 404.88 668.288 310.088C382.845 232.608 567.181 290.552 -19.131 518.212C-605.443 745.872 -258.666 471.305 -574.98 369.675C-891.295 268.045 -632.504 -245.895 -378.691 -436.015C-124.878 -626.136 -57.3855 -468.854 -3.84911 -789.118Z" fill="#3448FF"/>
<path d="M93.9777 -500.817C123.35 -676.59 299.964 -555.08 378.037 -495.284C464.954 -436.375 520.606 -424.023 543.928 -312.492C567.251 -200.961 652.565 -226.46 693.69 -77.6408C734.814 71.1786 599.712 128.415 426.814 30.9369C253.916 -66.5413 407.123 91.7198 85.5549 216.685C-236.013 341.65 -45.8158 190.949 -219.294 135.181C-392.772 79.4137 -250.823 -202.66 -111.614 -307.012C27.5949 -411.364 64.6057 -325.045 93.9777 -500.817Z" fill="#84D3FF"/>
</g>
<defs>
<filter id="filter0_f" x="-1151.94" y="-1386.33" width="2691.56" height="2423.33" filterUnits="userSpaceOnUse" color-interpolation-filters="sRGB">
<feFlood flood-opacity="0" result="BackgroundImageFix"/>
<feBlend mode="normal" in="SourceGraphic" in2="BackgroundImageFix" result="shape"/>
<feGaussianBlur stdDeviation="215.427" result="effect1_foregroundBlur"/>
</filter>
</defs>
</svg>
