<svg width="1020" height="1749" viewBox="0 0 1020 1749" fill="none" xmlns="http://www.w3.org/2000/svg">
<g opacity="0.3" filter="url(#filter0_f)">
<path d="M1658.76 1261.11C1822.4 973.85 1626.68 874.599 1427.16 729.635C1363.01 683.907 1334.57 760.157 1257.96 733.098C1181.36 706.039 1306.71 504.518 1153.26 501.006C999.805 497.494 826.387 539.499 875.058 741.912C923.729 944.325 886.311 989.948 607.069 1066.84C327.826 1143.72 691.89 1301.92 623.057 1544.84C554.224 1787.77 1036.64 1531.56 1018.27 1744.49C999.897 1957.41 1134.73 1829.15 1490.72 1642.85C1846.71 1456.55 1495.11 1548.37 1658.76 1261.11Z" fill="#AA0033"/>
<path opacity="0.7" d="M1532.66 1289.84C1639.69 1082.7 1504.05 1006.78 1365.02 897.38C1320.34 862.85 1302.19 918.092 1249.3 896.993C1196.41 875.894 1278.71 730.761 1173.65 725.548C1068.58 720.335 950.641 748.047 987.436 896.833C1024.23 1045.62 999.413 1078.32 809.657 1129.7C619.901 1181.09 871.753 1302.99 828.84 1479.36C785.928 1655.74 1111.62 1476.79 1102.72 1632.1C1093.82 1787.41 1183.87 1695.99 1424.26 1565.96C1664.64 1435.93 1425.64 1496.98 1532.66 1289.84Z" fill="#FFC95F"/>
</g>
<defs>
<filter id="filter0_f" x="0.160645" y="0.809082" width="2219.61" height="2354.24" filterUnits="userSpaceOnUse" color-interpolation-filters="sRGB">
<feFlood flood-opacity="0" result="BackgroundImageFix"/>
<feBlend mode="normal" in="SourceGraphic" in2="BackgroundImageFix" result="shape"/>
<feGaussianBlur stdDeviation="250" result="effect1_foregroundBlur"/>
</filter>
</defs>
</svg>
