<svg width="1290" height="1281" viewBox="0 0 1290 1281" fill="none" xmlns="http://www.w3.org/2000/svg">
<g opacity="0.35" filter="url(#filter0_f)">
<path d="M916.627 1362.79C954.046 1685.33 583.219 1561.96 416.22 1496.77C234.174 1437.61 130.439 1444.13 33.1922 1260.69C-64.0549 1077.25 -200.615 1165.04 -347.901 925.33C-495.187 685.621 -395.896 499.028 -34.0849 493.211C261.648 488.457 68.4732 483.93 568.607 102.542C1068.74 -278.846 811.753 81.151 1143.85 91.0341C1475.94 100.917 1369.89 666.48 1178.79 919.554C987.687 1172.63 879.209 1040.25 916.627 1362.79Z" fill="#3448FF"/>
<path d="M742.655 1112.95C763.202 1289.97 559.809 1222.23 468.212 1186.44C368.363 1153.96 311.469 1157.53 258.119 1056.85C204.77 956.168 129.879 1004.33 49.0804 872.767C-31.7179 741.199 82.2013 648.727 275.356 694.41C468.511 740.093 277.411 630.55 551.685 421.276C825.959 212.001 685.039 409.554 867.179 415.003C1049.32 420.452 991.2 730.835 886.407 869.712C781.614 1008.59 722.108 935.928 742.655 1112.95Z" fill="#84D3FF"/>
</g>
<defs>
<filter id="filter0_f" x="-954.854" y="-583.854" width="2963.45" height="2787.39" filterUnits="userSpaceOnUse" color-interpolation-filters="sRGB">
<feFlood flood-opacity="0" result="BackgroundImageFix"/>
<feBlend mode="normal" in="SourceGraphic" in2="BackgroundImageFix" result="shape"/>
<feGaussianBlur stdDeviation="215.427" result="effect1_foregroundBlur"/>
</filter>
</defs>
</svg>
