<svg width="26" height="31" viewBox="0 0 26 31" fill="none" xmlns="http://www.w3.org/2000/svg">
<path d="M21.3709 16.2792C21.3361 12.4186 24.5319 10.5404 24.678 10.453C22.8681 7.81423 20.0629 7.45368 19.0771 7.42494C16.721 7.17699 14.4355 8.83476 13.2353 8.83476C12.0112 8.83476 10.1629 7.44889 8.17097 7.48962C5.60765 7.52915 3.20963 9.01324 1.89443 11.3178C-0.819815 16.0169 1.20449 22.9223 3.80494 26.7205C5.10577 28.5807 6.62579 30.6577 8.61536 30.5847C10.5618 30.5044 11.2889 29.3437 13.6378 29.3437C15.9651 29.3437 16.6479 30.5847 18.677 30.538C20.766 30.5044 22.0812 28.6694 23.3365 26.7924C24.8397 24.6603 25.4434 22.5605 25.4674 22.4527C25.4183 22.4359 21.4104 20.9063 21.3709 16.2792Z" fill="white"/>
<path d="M17.5375 4.92618C18.5844 3.61697 19.3007 1.83582 19.1019 0.0283203C17.5866 0.0953979 15.6917 1.07641 14.6005 2.35687C13.635 3.48521 12.7726 5.33463 12.9954 7.07386C14.6975 7.20083 16.4451 6.21503 17.5375 4.92618Z" fill="white"/>
</svg>
