<svg width="30" height="34" viewBox="0 0 30 34" fill="none" xmlns="http://www.w3.org/2000/svg">
<path d="M1.12381 1.47863C0.714059 1.97031 0.507244 2.59974 0.545519 3.23863V31.0466C0.507244 31.6855 0.714059 32.3149 1.12381 32.8066L1.21181 32.8946L16.7878 17.3312V16.9666L1.21181 1.39062L1.12381 1.47863Z" fill="url(#paint0_linear)"/>
<path d="M21.9424 22.5233L16.7881 17.3313V16.9668L21.9424 11.7622L22.0555 11.8251L28.2281 15.3325C29.9881 16.3256 29.9881 17.9599 28.2281 18.9656L22.0807 22.4605L21.9424 22.5233Z" fill="url(#paint1_linear)"/>
<path d="M22.0932 22.448L16.788 17.1428L1.12402 32.8068C1.48276 33.1222 1.9404 33.3023 2.41785 33.3161C2.8953 33.3299 3.36256 33.1764 3.73888 32.8822L22.1057 22.448" fill="url(#paint2_linear)"/>
<path d="M22.093 11.8375L3.72619 1.40319C3.34986 1.10904 2.8826 0.955586 2.40516 0.969358C1.92771 0.983131 1.47007 1.16326 1.11133 1.47862L16.7879 17.1426L22.093 11.8375Z" fill="url(#paint3_linear)"/>
<path opacity="0.2" d="M21.9423 22.3347L3.72631 32.7061C3.36336 32.9775 2.92235 33.1241 2.46917 33.1241C2.01599 33.1241 1.57497 32.9775 1.21202 32.7061L1.12402 32.7941L1.21202 32.8821C1.57415 33.1554 2.01548 33.3033 2.46917 33.3033C2.92285 33.3033 3.36418 33.1554 3.72631 32.8821L22.0932 22.4479L21.9423 22.3347Z" fill="black"/>
<path opacity="0.12" d="M1.12381 32.6308C0.714059 32.1391 0.507244 31.5097 0.545519 30.8708V31.0594C0.507244 31.6983 0.714059 32.3277 1.12381 32.8194L1.21181 32.7314L1.12381 32.6308ZM28.2278 18.7771L21.9421 22.3348L22.0552 22.448L28.2278 18.9531C28.578 18.7886 28.8787 18.5346 29.0994 18.2167C29.3201 17.8989 29.4531 17.5285 29.4849 17.1428C29.4142 17.4932 29.2642 17.8227 29.0462 18.106C28.8283 18.3893 28.5483 18.6189 28.2278 18.7771Z" fill="black"/>
<path opacity="0.25" d="M3.72635 1.57848L28.2281 15.5076C28.5486 15.6658 28.8286 15.8954 29.0465 16.1787C29.2644 16.462 29.4145 16.7915 29.4852 17.1419C29.4534 16.7563 29.3204 16.3858 29.0997 16.068C28.8789 15.7501 28.5783 15.4961 28.2281 15.3316L3.72635 1.40248C1.96635 0.409335 0.533203 1.23905 0.533203 3.25048V3.43905C0.570917 1.41505 1.97892 0.585336 3.72635 1.57848Z" fill="white"/>
<defs>
<linearGradient id="paint0_linear" x1="15.4049" y1="2.94948" x2="-5.68991" y2="24.0443" gradientUnits="userSpaceOnUse">
<stop stop-color="#00A0FF"/>
<stop offset="0.01" stop-color="#00A1FF"/>
<stop offset="0.26" stop-color="#00BEFF"/>
<stop offset="0.51" stop-color="#00D2FF"/>
<stop offset="0.76" stop-color="#00DFFF"/>
<stop offset="1" stop-color="#00E3FF"/>
</linearGradient>
<linearGradient id="paint1_linear" x1="30.5287" y1="17.1428" x2="0.118377" y2="17.1428" gradientUnits="userSpaceOnUse">
<stop stop-color="#FFE000"/>
<stop offset="0.41" stop-color="#FFBD00"/>
<stop offset="0.78" stop-color="#FFA500"/>
<stop offset="1" stop-color="#FF9C00"/>
</linearGradient>
<linearGradient id="paint2_linear" x1="19.2143" y1="20.0343" x2="-9.39826" y2="48.6342" gradientUnits="userSpaceOnUse">
<stop stop-color="#FF3A44"/>
<stop offset="1" stop-color="#C31162"/>
</linearGradient>
<linearGradient id="paint3_linear" x1="-2.82353" y1="-7.77395" x2="9.94904" y2="4.99862" gradientUnits="userSpaceOnUse">
<stop stop-color="#32A071"/>
<stop offset="0.07" stop-color="#2DA771"/>
<stop offset="0.48" stop-color="#15CF74"/>
<stop offset="0.8" stop-color="#06E775"/>
<stop offset="1" stop-color="#00F076"/>
</linearGradient>
</defs>
</svg>
