<svg width="40" height="40" viewBox="0 0 40 40" fill="none" xmlns="http://www.w3.org/2000/svg"><path fill-rule="evenodd" clip-rule="evenodd" d="M13.334 5H8.667a2 2 0 0 0-2 2v29.333a2 2 0 0 0 2 2h22.667a2 2 0 0 0 2-2V7a2 2 0 0 0-2-2h-4.667v.833a2.5 2.5 0 0 1-2.5 2.5h-8.333a2.5 2.5 0 0 1-2.5-2.5V5z" fill="#284BDD"/><path fill-rule="evenodd" clip-rule="evenodd" d="M21.667 3.334H24.5a.5.5 0 0 1 .5.5v2.333a.5.5 0 0 1-.5.5h-9a.5.5 0 0 1-.5-.5V3.834a.5.5 0 0 1 .5-.5h2.833a1.667 1.667 0 0 1 3.334 0z" fill="#fff"/><rect opacity=".5" x="16.667" y="15" width="11.667" height="3.333" rx="1.667" fill="#fff"/><rect opacity=".5" x="11.667" y="15" width="3.333" height="3.333" rx="1.667" fill="#fff"/><rect opacity=".5" x="11.667" y="21.667" width="3.333" height="3.333" rx="1.667" fill="#fff"/><rect opacity=".5" x="16.667" y="21.667" width="11.667" height="3.333" rx="1.667" fill="#fff"/><rect opacity=".5" x="11.667" y="28.333" width="3.333" height="3.333" rx="1.667" fill="#fff"/><rect opacity=".5" x="16.667" y="28.333" width="11.667" height="3.333" rx="1.667" fill="#fff"/></svg>