<svg width="40" height="40" viewBox="0 0 40 40" fill="none" xmlns="http://www.w3.org/2000/svg"><path opacity=".2" d="M28.334 3.333h5.333a3 3 0 0 1 3 3v27.333a3 3 0 0 1-3 3h-5.334V3.333z" fill="#fff"/><path fill="#fff" d="M9.166 9.167h18.333v22.5H9.166z"/><path fill-rule="evenodd" clip-rule="evenodd" d="M5 4.333a1 1 0 0 1 1-1h22.667a3 3 0 0 1 3 3v27.333a3 3 0 0 1-3 3H6a1 1 0 0 1-1-1V4.333zm13.333 14a3.333 3.333 0 1 1 0-6.667 3.333 3.333 0 0 1 0 6.667zM18.318 20c-4.372 0-7.959 2.527-8.317 7.499-.02.27.44.834.673.834h15.295c.696 0 .706-.63.696-.833-.272-5.112-3.914-7.5-8.347-7.5z" fill="#284BDD"/></svg>