<svg width="40" height="40" viewBox="0 0 40 40" fill="none" xmlns="http://www.w3.org/2000/svg"><path opacity=".4" d="M24.168 11.667a1.666 1.666 0 1 0 3.332 0V10a6.665 6.665 0 0 0-6.664-6.666h-9.994A6.665 6.665 0 0 0 4.178 10v20a6.665 6.665 0 0 0 6.664 6.667h10.005A6.665 6.665 0 0 0 27.511 30v-1.666a1.666 1.666 0 1 0-3.332 0V30a3.333 3.333 0 0 1-3.331 3.334H10.841A3.333 3.333 0 0 1 7.51 30V10a3.333 3.333 0 0 1 3.332-3.333h9.994A3.333 3.333 0 0 1 24.168 10v1.667z" fill="#fff"/><rect x="34.166" y="18.333" width="3.333" height="20" rx="1" transform="rotate(90 34.166 18.333)" fill="#fff"/><path d="M29.655 16.179a1.667 1.667 0 1 1 2.357-2.357l5 5c.65.65.65 1.706 0 2.357l-5 5a1.667 1.667 0 1 1-2.357-2.357L33.476 20l-3.821-3.821z" fill="#fff"/></svg>