<svg width="40" height="40" viewBox="0 0 40 40" fill="none" xmlns="http://www.w3.org/2000/svg"><path fill-rule="evenodd" clip-rule="evenodd" d="M34.01 11.227c.602.267.99.864.99 1.523v14.603c0 .605-.328 1.163-.857 1.457l-13.334 7.407c-.503.28-1.115.28-1.618 0L5.857 28.81A1.667 1.667 0 0 1 5 27.353V12.75c0-.659.388-1.256.99-1.523L19.323 5.3a1.663 1.663 0 0 1 1.354 0l13.333 5.926z" fill="#284BDD"/><path fill-rule="evenodd" clip-rule="evenodd" d="M24.946 7.041l-12.279 6.822v7.647L16 23.176v-7.352l12.76-7.088-3.814-1.696z" fill="#fff"/></svg>