<svg width="31" height="31" viewBox="0 0 31 31" fill="none" xmlns="http://www.w3.org/2000/svg">
<path d="M15.2926 9.25732C12.0876 9.25732 9.49121 11.855 9.49121 15.0587C9.49121 18.2638 12.0876 20.8614 15.2926 20.8614C18.4951 20.8614 21.094 18.2638 21.094 15.0587C21.094 11.855 18.4951 9.25732 15.2926 9.25732ZM15.2926 18.8285C13.2107 18.8285 11.5229 17.1406 11.5229 15.06C11.5229 12.9781 13.2107 11.2915 15.2926 11.2915C17.3745 11.2915 19.0598 12.9781 19.0598 15.06C19.0598 17.1406 17.3745 18.8285 15.2926 18.8285Z" fill="white"/>
<path d="M21.3254 10.397C22.0726 10.397 22.6782 9.79131 22.6782 9.04419C22.6782 8.29707 22.0726 7.69141 21.3254 7.69141C20.5783 7.69141 19.9727 8.29707 19.9727 9.04419C19.9727 9.79131 20.5783 10.397 21.3254 10.397Z" fill="white"/>
<path d="M26.0026 7.66872C25.4141 6.15155 24.2156 4.95186 22.6985 4.36582C21.8213 4.03578 20.8939 3.85884 19.9552 3.83876C18.7468 3.78605 18.364 3.771 15.2996 3.771C12.2351 3.771 11.8423 3.771 10.6439 3.83876C9.70771 3.85758 8.78034 4.03453 7.90317 4.36582C6.38473 4.95186 5.1863 6.15155 4.59901 7.66872C4.26897 8.54715 4.09203 9.47327 4.0732 10.4119C4.01924 11.6192 4.00293 12.0019 4.00293 15.0676C4.00293 18.1321 4.00293 18.5224 4.0732 19.7233C4.09203 20.662 4.26897 21.5881 4.59901 22.4678C5.18756 23.9837 6.38599 25.1834 7.90442 25.7707C8.77783 26.112 9.7052 26.3053 10.6464 26.3354C11.8549 26.3881 12.2376 26.4044 15.3021 26.4044C18.3665 26.4044 18.7593 26.4044 19.9578 26.3354C20.8952 26.3166 21.8225 26.1384 22.701 25.8096C24.2181 25.221 25.4166 24.0226 26.0051 22.5054C26.3352 21.627 26.5121 20.7009 26.5309 19.7622C26.5849 18.555 26.6012 18.1723 26.6012 15.1065C26.6012 12.0408 26.6012 11.6518 26.5309 10.4508C26.5146 9.49962 26.3389 8.55719 26.0026 7.66872ZM24.4741 19.6304C24.4654 20.3533 24.3349 21.0698 24.0839 21.7487C23.7011 22.7363 22.9218 23.5169 21.9355 23.8959C21.2641 24.1456 20.5563 24.2761 19.8398 24.2861C18.6476 24.3414 18.3113 24.3552 15.2544 24.3552C12.1949 24.3552 11.8825 24.3552 10.6677 24.2861C9.95367 24.2774 9.2434 24.1456 8.57328 23.8959C7.58317 23.5181 6.79885 22.7376 6.41611 21.7487C6.17015 21.0786 6.03713 20.3696 6.02583 19.6543C5.97187 18.4621 5.95932 18.1258 5.95932 15.0689C5.95932 12.0107 5.95932 11.6982 6.02583 10.4822C6.03462 9.75939 6.16513 9.04409 6.41611 8.36519C6.79885 7.37507 7.58317 6.59578 8.57328 6.2168C9.2434 5.96833 9.95367 5.83657 10.6677 5.82653C11.8611 5.77256 12.1962 5.75751 15.2544 5.75751C18.3126 5.75751 18.6263 5.75751 19.8398 5.82653C20.5563 5.83531 21.2641 5.96707 21.9355 6.2168C22.9218 6.59704 23.7011 7.37758 24.0839 8.36519C24.3298 9.03531 24.4629 9.74433 24.4741 10.4596C24.5281 11.653 24.5419 11.9881 24.5419 15.0463C24.5419 18.1032 24.5419 18.432 24.4879 19.6317H24.4741V19.6304Z" fill="white"/>
</svg>
