<svg width="20" height="28" viewBox="0 0 20 28" fill="none" xmlns="http://www.w3.org/2000/svg">
<path fill-rule="evenodd" clip-rule="evenodd" d="M5.84066 0.1712C5.35892 0.299272 4.7369 0.883103 4.54088 1.39117C4.29174 2.03683 4.32985 3.1938 4.64091 4.42285C4.77842 4.96659 5.30859 6.69831 5.81891 8.27104C6.32931 9.84377 6.77347 11.2519 6.8061 11.4003L6.86533 11.6701L6.48587 11.4765C5.53014 10.989 4.61988 11.2004 3.75024 12.1121C3.2038 12.685 2.89885 13.2495 2.8958 13.6939C2.89472 13.8498 2.9979 14.2745 3.12516 14.6376C3.25242 15.0006 3.37672 15.362 3.40144 15.4406C3.43523 15.5475 3.31525 15.6312 2.92294 15.7744C1.31731 16.3602 0.695467 17.347 0.703196 19.2972C0.709397 20.8739 1.13415 22.1448 2.07838 23.4118C4.01187 26.0065 6.98028 27.2819 10.3313 26.9578C11.6228 26.8328 12.589 26.5843 13.572 26.1244C15.8481 25.0591 17.606 23.1962 18.5356 20.8638C19.6065 18.1768 19.5902 14.1294 18.5026 12.7036C18.187 12.2898 17.5158 11.8603 16.9162 11.6883C16.6433 11.61 16.41 11.5374 16.3976 11.5271C16.3853 11.5166 16.5408 11.0463 16.7432 10.482C18.201 6.41628 18.7931 4.40065 18.8665 3.25447C18.9197 2.42348 18.8212 1.97904 18.4567 1.4042C18.1391 0.903505 17.6933 0.670817 16.9593 0.622554C16.4714 0.590469 16.3841 0.613207 16.0426 0.862072C15.0051 1.61783 13.6668 4.23384 12.199 8.37575C11.9189 9.16575 11.6765 9.82553 11.6601 9.84189C11.6437 9.85833 11.5202 9.5355 11.3855 9.1245C10.0634 5.08811 8.64118 1.88521 7.68616 0.793497C7.06063 0.0783583 6.67659 -0.0510624 5.84066 0.1712ZM6.95341 1.56679C7.08534 1.69018 7.31327 2.01931 7.45985 2.29819C7.78278 2.9124 10.4878 10.4749 10.4118 10.5509C10.3822 10.5805 10.0638 10.5597 9.70413 10.5046C9.00958 10.3983 8.317 10.4742 8.19611 10.6697C8.12089 10.7915 7.87346 10.187 6.98208 7.7033C5.32954 3.09889 5.13738 1.76676 6.06777 1.36457C6.41101 1.21618 6.63273 1.26678 6.95341 1.56679ZM17.364 2.11754C17.7332 2.48666 17.7742 2.86962 17.5449 3.80666C17.2273 5.10365 15.2356 10.9459 15.0463 11.1352C14.9909 11.1906 12.9009 10.8732 12.7924 10.7929C12.7533 10.7639 14.6546 5.36906 15.0785 4.3061C15.6879 2.77813 16.3632 1.8614 16.8795 1.8614C17.0108 1.8614 17.2168 1.97024 17.364 2.11754ZM13.1003 11.9268C15.4444 12.3242 17.163 12.976 17.5974 13.6325C17.9088 14.103 18.0237 14.8486 18.0204 16.3763C18.0147 19.0382 17.2832 21.1824 15.7998 22.8853C14.1198 24.8141 12.213 25.6892 9.67942 25.6942C7.29367 25.699 5.4719 24.9556 3.82978 23.3072C1.82799 21.2977 1.29125 18.6191 2.6357 17.3479C2.92716 17.0724 3.31785 16.8706 3.56025 16.8706C4.12449 16.8706 6.41487 19.5442 6.81005 20.6642C6.96302 21.0977 6.92797 21.2582 6.61664 21.5507C5.96262 22.1652 4.82417 21.4807 3.65372 19.7695C3.40881 19.4114 3.17882 19.1182 3.14269 19.1179C2.88079 19.1161 2.87692 20.5534 3.13756 21.0525C3.5704 21.8814 4.56047 22.8132 5.38822 23.1705C6.96797 23.8525 8.39824 22.9845 8.26873 21.4223L8.22838 20.9364L8.56559 20.9816C8.75109 21.0065 9.02081 20.9857 9.16497 20.9355L9.42705 20.8442L9.52681 21.7578C9.66513 23.0251 10.0288 23.7982 10.6334 24.1109C10.929 24.2637 11.2522 24.2806 11.2522 24.1432C11.2522 24.0898 11.1261 23.5552 10.9721 22.9552C10.6019 21.5142 10.6296 20.8784 11.1058 19.8755C11.8832 18.2386 12.8921 17.2728 14.5358 16.5921C15.9116 16.0224 16.1229 15.7973 15.7395 15.3099C15.557 15.0779 15.5315 15.0731 14.4907 15.0731C12.327 15.0731 10.3718 14.7397 9.51908 14.2254C8.53872 13.6341 8.30918 12.1589 9.13801 11.7762C9.5118 11.6036 11.6799 11.686 13.1003 11.9268ZM6.05097 12.8279C6.93597 13.0737 8.4741 15.3663 9.26581 17.6193C9.60761 18.5921 9.62145 18.9589 9.32765 19.2527C9.0023 19.5781 8.72746 19.6086 8.0764 19.392C7.5997 19.2334 7.40521 19.1022 6.96419 18.6419C5.40386 17.0131 4.15253 14.6753 4.41523 13.8794C4.55157 13.4661 5.32082 12.7474 5.63502 12.7396C5.68445 12.7383 5.87157 12.7781 6.05097 12.8279ZM11.6821 16.1225C12.0422 16.1533 12.3558 16.2093 12.3791 16.247C12.4024 16.2846 12.2286 16.457 11.9929 16.63C11.7572 16.803 11.3342 17.1859 11.0529 17.4808C10.5357 18.0231 10.4434 18.0627 10.4434 17.7422C10.4434 17.6449 10.2816 17.1621 10.0839 16.6692C9.88613 16.1764 9.72436 15.7643 9.72436 15.7536C9.72436 15.7428 10.0176 15.8088 10.376 15.9002C10.7343 15.9917 11.3222 16.0916 11.6821 16.1225Z" fill="white"/>
</svg>
