<svg width="31" height="31" viewBox="0 0 31 31" fill="none" xmlns="http://www.w3.org/2000/svg">
<path d="M24.7546 10.035C24.771 10.2546 24.771 10.4729 24.771 10.6913C24.771 17.3736 19.6848 25.0737 10.3898 25.0737C7.52609 25.0737 4.8657 24.2442 2.62695 22.8036C3.03354 22.85 3.42507 22.8663 3.84797 22.8663C6.21095 22.8663 8.3857 22.0682 10.1237 20.7067C7.90131 20.6602 6.03903 19.2045 5.39652 17.2017C5.70899 17.2481 6.02272 17.2795 6.3515 17.2795C6.80452 17.2795 7.26005 17.2168 7.68295 17.1076C5.36515 16.6383 3.62962 14.6041 3.62962 12.147V12.0842C4.3035 12.4594 5.08531 12.6941 5.91354 12.7255C4.55197 11.8194 3.65974 10.2696 3.65974 8.51654C3.65974 7.57787 3.90946 6.71701 4.34742 5.96658C6.83589 9.0323 10.5768 11.0364 14.7706 11.256C14.6928 10.8795 14.6451 10.4892 14.6451 10.0977C14.6451 7.31183 16.899 5.04297 19.6999 5.04297C21.1556 5.04297 22.4695 5.65285 23.3931 6.6392C24.535 6.4196 25.6293 5.99669 26.6006 5.41818C26.2254 6.59152 25.426 7.57787 24.3782 8.20407C25.3959 8.09364 26.3822 7.81254 27.2883 7.42101C26.6006 8.42242 25.741 9.31465 24.7546 10.035Z" fill="white"/>
</svg>
