<svg width="16" height="16" viewBox="0 0 16 16" fill="none" xmlns="http://www.w3.org/2000/svg">
<path d="M7.9861 0.330437V15.4472C7.9861 15.4747 7.96097 15.4951 7.93426 15.4904C7.90049 15.4849 7.86751 15.4731 7.83766 15.4551C7.38765 15.1967 6.98004 14.9407 6.60385 14.6878C6.14362 14.3791 5.73052 14.0752 5.34255 13.776C4.84619 13.3935 4.42052 13.0409 4.05533 12.7212C3.04927 11.8377 2.50893 11.1968 2.24034 10.8316C2.21913 10.8033 2.20028 10.7766 2.18222 10.7523C1.63403 10.0007 1.29004 8.90589 1.29004 7.68778V2.65042C1.29004 2.54832 1.35522 2.45643 1.4534 2.42423L3.74118 1.66399C3.8959 1.61295 4.05533 1.72839 4.05533 1.89097V3.21824C4.05533 3.38081 4.21476 3.49626 4.36947 3.44443L6.44128 2.75644C6.53866 2.72424 6.60463 2.63235 6.60463 2.53026V0.884907C6.60463 0.782024 6.6706 0.690921 6.76799 0.658721L7.8518 0.299022C7.87693 0.290383 7.90206 0.284885 7.92798 0.280958C7.95861 0.277032 7.9861 0.299807 7.9861 0.330437Z" stroke="black" stroke-width="0.549759" stroke-miterlimit="10"/>
<path d="M14.6359 2.3111L12.3072 1.53751C12.1502 1.48489 11.9876 1.60191 11.9876 1.76763V3.11846C11.9876 3.28418 11.825 3.4012 11.6679 3.34858L9.55923 2.64803C9.45949 2.61504 9.39273 2.52158 9.39273 2.41791V0.744291C9.39273 0.639837 9.32519 0.547163 9.22624 0.514178L8.12201 0.148196C8.09687 0.139557 8.07017 0.133274 8.04425 0.129347C8.01362 0.12542 7.98535 0.148196 7.98535 0.17961V15.5681C7.98535 15.5956 8.01048 15.6168 8.03797 15.6121C8.07174 15.6058 8.10551 15.5948 8.13693 15.5768C8.5948 15.3145 9.00947 15.0537 9.39273 14.7961C9.8616 14.482 10.2818 14.1725 10.6768 13.8678C11.1818 13.4783 11.6153 13.1201 11.9868 12.7934C13.0109 11.8942 13.5615 11.2415 13.834 10.8701C13.8552 10.8418 13.8748 10.8143 13.8929 10.7892C14.4513 10.0242 14.8016 8.90978 14.8016 7.66968V2.54122C14.8024 2.43755 14.7356 2.34409 14.6359 2.3111ZM10.7224 8.58856C10.7224 8.68438 10.6289 8.7527 10.5378 8.72443L9.61264 8.43227C9.4807 8.39065 9.39038 8.26734 9.39038 8.12912V5.68976C9.39038 5.59395 9.48384 5.52562 9.57572 5.55389L10.5009 5.84605C10.6328 5.88767 10.7231 6.01098 10.7231 6.1492V8.58856H10.7224ZM13.3384 9.16502C13.3384 9.26084 13.245 9.32995 13.1539 9.30089L12.2287 9.00873C12.0968 8.96711 12.0064 8.84381 12.0064 8.70558V6.26622C12.0064 6.17041 12.0999 6.1013 12.191 6.13035L13.1162 6.42251C13.2481 6.46414 13.3384 6.58744 13.3384 6.72566V9.16502Z" fill="black" stroke="black" stroke-width="0.235611" stroke-miterlimit="10"/>
</svg>
