<?xml version="1.0" standalone="no"?>
<!DOCTYPE svg PUBLIC "-//W3C//DTD SVG 20010904//EN"
 "http://www.w3.org/TR/2001/REC-SVG-20010904/DTD/svg10.dtd">
<svg version="1.0" xmlns="http://www.w3.org/2000/svg"
 width="700.000000pt" height="700.000000pt" viewBox="0 0 700.000000 700.000000"
 preserveAspectRatio="xMidYMid meet">
<g transform="translate(0.000000,700.000000) scale(0.100000,-0.100000)"
fill="#000000" stroke="none">
<path d="M3435 6993 c-51 -10 -534 -175 -561 -192 -38 -23 -77 -74 -93 -120
-7 -23 -11 -154 -11 -405 l0 -371 -429 -143 c-236 -78 -432 -142 -437 -142 -5
0 -9 131 -10 298 0 277 -2 300 -21 343 -36 80 -102 126 -192 135 -37 3 -136
-27 -586 -177 -590 -196 -579 -191 -628 -283 l-21 -41 0 -1205 c0 -663 3
-1241 7 -1285 36 -422 161 -812 355 -1105 189 -288 561 -679 992 -1045 63 -53
126 -107 140 -119 106 -90 491 -388 625 -483 244 -172 406 -280 585 -388 302
-183 309 -185 430 -123 41 21 82 42 90 48 8 5 83 51 165 101 278 169 585 383
875 608 124 96 328 259 340 271 3 3 32 27 65 55 33 27 69 57 80 67 11 10 32
28 46 40 336 295 613 576 800 813 234 298 366 598 444 1010 37 199 38 226 40
1509 2 812 -1 1259 -7 1278 -22 62 -58 83 -255 148 -104 34 -197 65 -208 70
-42 18 -636 210 -675 219 -65 15 -137 -20 -173 -84 -8 -14 -12 -123 -13 -348
-2 -338 -3 -349 -43 -362 -21 -6 -971 309 -982 326 -4 7 -8 184 -8 393 -1 210
-2 388 -4 396 -7 38 -30 77 -60 98 -43 30 -532 191 -593 195 -27 2 -58 2 -69
0z m-60 -3428 l0 -3154 -35 21 c-19 12 -44 26 -55 32 -66 37 -325 207 -465
305 -126 88 -439 318 -450 331 -3 3 -36 30 -75 60 -79 62 -410 336 -469 390
-22 19 -67 60 -100 90 -116 104 -412 405 -498 505 -87 103 -208 263 -245 325
-140 237 -242 542 -277 830 -3 25 -9 70 -12 100 -4 30 -7 589 -8 1242 l-1
1187 465 155 c256 85 474 156 484 158 19 3 20 -6 20 -302 l1 -305 28 -47 c44
-76 115 -118 200 -118 58 0 994 313 1041 348 19 15 47 49 60 76 l25 48 1 376
c0 207 3 378 6 381 6 7 333 119 349 120 7 1 10 -1057 10 -3154z m847 941 c24
-8 117 -37 208 -66 121 -38 171 -58 188 -76 l22 -25 0 -556 c0 -525 -1 -555
-17 -548 -10 4 -25 8 -34 10 -9 2 -101 31 -205 64 -134 43 -194 67 -206 83
-17 20 -18 63 -18 575 0 349 4 553 10 553 5 0 29 -6 52 -14z m1154 -255 c32
-10 127 -40 209 -66 96 -31 159 -56 175 -71 l24 -24 1 -546 c0 -300 -3 -550
-6 -556 -7 -10 -365 98 -426 129 -18 9 -36 25 -40 37 -7 22 -12 1082 -5 1104
5 15 -2 16 68 -7z"/>
</g>
</svg>
