<svg width="119" height="53" viewBox="0 0 119 53" fill="none" xmlns="http://www.w3.org/2000/svg">
<path d="M0.348945 5.83846L0 46.9434H8.8108L8.83504 5.8869L0.348945 5.83846Z" fill="white"/>
<path d="M8.74512 25.7731L24.6414 47.0643L36.2268 47.1128L19.1867 25.9911L35.7615 5.83836L24.6656 5.78992L8.74512 25.7731Z" fill="white"/>
<path d="M71.904 25.0951C71.904 25.0951 75.9968 22.3338 76.021 16.9565L76.0234 16.1329C75.2528 6.66207 65.6254 5.81429 65.6254 5.81429L40.9838 5.74163L40.8359 47.0887L66.9049 47.2583C66.9049 47.2583 76.8618 46.9676 78.0589 35.3895L78.0613 34.5659C78.0856 29.1886 71.904 25.0951 71.904 25.0951ZM49.2784 12.33C49.2784 12.33 57.7645 11.9667 62.3323 12.4754C66.9 12.984 66.8806 17.2471 66.8806 17.2471C65.8774 22.4549 62.2911 21.9462 62.2911 21.9462L49.2324 21.8978L49.2784 12.33ZM62.8581 40.5488L49.15 40.4761L49.2033 28.5831L62.7491 28.6315C62.7491 28.6315 68.7853 28.9949 68.4339 34.8566C68.1165 40.0644 62.8581 40.5488 62.8581 40.5488Z" fill="white"/>
<path d="M115.887 6.1048L91.8974 5.93524C91.8974 5.93524 80.4719 6.68613 80.5858 17.7798C80.6973 28.8736 93.2665 28.6071 93.7511 28.9462L101.423 28.8009C101.423 28.8009 107.626 28.6798 108.746 33.2578C109.868 37.8115 105.453 40.2579 105.453 40.2579L103.492 40.7182L82.4396 40.6213L82.4105 46.9917L106.89 47.1128C106.89 47.1128 117.336 46.8221 118.851 36.3824C120.368 25.9669 109.776 22.6485 109.776 22.6485L105.043 22.3094L94.5992 22.1883C94.5992 22.1883 90.1987 21.4132 90.3804 17.1743C90.5622 12.9354 95.4595 12.4752 95.4595 12.4752H115.861L115.887 6.1048Z" fill="white"/>
</svg>
