<svg width="120" height="23" viewBox="0 0 120 23" fill="none" xmlns="http://www.w3.org/2000/svg">
<path d="M0 0.899902H8.47987C8.47987 0.899902 16.1709 12.3054 16.401 12.5953C16.6311 12.8853 16.6639 12.5953 16.6639 12.5953C16.3024 10.8233 15.908 10.0501 15.908 7.2148V0.899902H24.355V22.0033H15.908C15.908 22.0033 8.38127 11.2099 8.15119 10.92C7.92112 10.63 7.88825 10.92 7.88825 10.92C8.18406 12.3698 8.447 12.6276 8.447 15.1406V22.0033H0V0.899902Z" fill="white"/>
<path d="M37.6661 14.3352L38.8165 10.0501C39.0794 9.18015 39.2437 7.92361 39.2437 7.92361C39.2766 7.7303 39.5395 7.7303 39.6053 7.92361C39.671 8.21358 39.8025 9.11571 40.0654 10.0178L41.2487 14.3352H37.6661ZM36.0556 19.3613H42.7277L43.5165 22.0033H52.851L44.2068 0.899902H34.445L25.998 22.0033H35.3325L36.0556 19.3613Z" fill="white"/>
<path d="M75.1031 0.899902L65.7029 22.0033H58.242L48.8418 0.899902H58.0448L61.2658 10.5011C61.6273 11.5321 61.8903 13.8197 61.8903 13.8197C61.956 14.013 62.1532 13.9808 62.1861 13.8197C62.1861 13.8197 62.449 11.5321 62.8106 10.5011L65.9001 0.899902H75.1031Z" fill="white"/>
<path d="M76.9434 0.899902H93.2786V6.66708H85.8505V8.66465H92.6213V14.1419H85.8505V16.2361H93.5416V22.0033H76.9434V0.899902Z" fill="white"/>
<path d="M105.768 6.66708H106.458C107.97 6.66708 109.285 6.86039 109.285 8.47133C109.285 10.0501 107.839 10.2434 106.393 10.2434H105.768V6.66708ZM97.124 22.0033H105.768V15.2373C105.768 15.2373 105.834 15.0118 105.998 15.2373L109.811 22.0033H120L114.708 15.1406C114.215 14.5285 113.394 14.013 113.229 13.8841C113.032 13.7552 113.229 13.723 113.229 13.723C116.516 12.7564 117.929 11.4355 117.929 8.2458C117.929 2.92969 113.295 0.899902 107.806 0.899902H97.124V22.0033Z" fill="white"/>
</svg>
