<svg width="120" height="62" viewBox="0 0 120 62" fill="none" xmlns="http://www.w3.org/2000/svg">
<path fill-rule="evenodd" clip-rule="evenodd" d="M116.407 35.2851C114.057 35.2851 112.858 36.8266 112.671 37.0601C112.059 35.9398 110.979 35.2851 109.546 35.2851C107.48 35.2851 106.304 36.4768 106.115 36.6866C106.023 36.3596 105.599 35.4957 104.259 35.4957C103.884 35.4957 103.32 35.6128 103.273 35.6128C103.32 35.8692 103.578 37.0834 103.578 38.7646C103.578 39.8159 103.578 46.1444 103.578 46.1444H106.304V38.6246C106.35 38.5778 107.362 37.5501 108.582 37.5501C109.829 37.5501 110.416 38.4611 110.416 39.6987V46.1442H113.14V38.6244C113.211 38.5551 114.198 37.5498 115.443 37.5498C116.687 37.5498 117.251 38.4609 117.251 39.6984V46.1439H120V39.2783C120.001 36.8504 118.615 35.2851 116.407 35.2851ZM86.5939 44.1829C84.7377 44.1829 83.4233 42.7348 83.4233 40.8433C83.4233 38.7413 84.9255 37.481 86.5939 37.481C87.4865 37.481 87.8625 37.7382 88.4509 37.7382C89.084 37.7382 89.4364 37.4331 89.7422 36.8263C89.9298 36.5012 90.0251 36.2893 90.0251 36.2893C89.8829 36.2186 88.5215 35.2848 86.1716 35.2848C82.7407 35.2848 80.6979 37.7379 80.6979 40.8433C80.6979 44.253 83.048 46.377 86.1716 46.377C88.4512 46.377 89.8127 45.4672 90.0706 45.2804L89.1311 43.4361C88.9204 43.5755 87.932 44.1829 86.5939 44.1829ZM56.7587 35.2851C54.1509 35.2851 51.9658 37.3874 51.9658 40.8436C51.9658 44.3704 54.1044 46.3772 57.2761 46.3772C59.8125 46.3772 61.1274 45.2807 61.2924 45.1863C61.2924 45.1863 61.0343 44.79 60.9643 44.6736C60.6112 44.0887 60.2125 43.903 59.7654 43.903C58.8725 43.903 58.7562 44.276 57.5337 44.276C55.4432 44.276 54.7146 42.6652 54.6675 41.5917H61.644C61.644 41.31 61.644 40.937 61.644 40.7738C61.644 37.481 59.7428 35.2851 56.7587 35.2851ZM54.6675 39.6516C54.6675 38.4389 55.513 37.317 56.7345 37.317C58.0734 37.317 58.8023 38.4842 58.8252 39.6516H54.6675ZM66.2961 43.1559V32.0865C66.2961 30.849 65.4733 29.8911 64.1581 29.8911C64.0876 29.8911 63.5947 29.8911 63.5947 29.8911V44.2297C63.5947 45.5611 64.4162 46.377 65.8509 46.377C67.6124 46.377 68.1292 45.14 68.1292 43.9498C68.0587 43.9958 67.6821 44.1371 67.3064 44.1371C66.6727 44.1371 66.2961 43.7861 66.2961 43.1559ZM48.1125 42.7816V37.5284H50.3916L51.1903 35.4954H48.1125V32.3204C48.1125 32.3204 47.8783 32.2963 47.8546 32.3204C46.6555 32.3204 45.3874 32.81 45.3874 35.4724V35.4957H43.3906V37.5286H45.3874V43.7165C45.3874 45.4675 46.4444 46.3775 47.9252 46.3775C49.123 46.3775 50.6727 46.0286 50.6727 43.6702C50.5795 43.7168 49.9916 44.089 49.3583 44.089C48.4649 44.0884 48.1125 43.5527 48.1125 42.7816ZM73.8371 35.2851C71.2291 35.2851 69.0205 37.3874 69.0205 40.8436C69.0205 44.3704 71.1588 46.3772 74.3558 46.3772C76.8683 46.3772 78.1832 45.2807 78.348 45.1863C78.348 45.1863 78.1127 44.79 78.0424 44.6736C77.6675 44.0887 77.268 43.903 76.8217 43.903C75.9286 43.903 75.8112 44.276 74.5897 44.276C72.5216 44.276 71.7933 42.6652 71.7464 41.5917H78.7245C78.7245 41.31 78.7245 40.937 78.7245 40.7738C78.7248 37.481 76.7983 35.2851 73.8371 35.2851ZM71.7225 39.6516C71.7225 38.4389 72.5924 37.317 73.7905 37.317C75.13 37.317 75.881 38.4842 75.9036 39.6516H71.7225ZM96.2958 46.377C92.9602 46.377 90.9634 44.2056 90.9634 40.8433C90.9634 37.5043 92.9368 35.2848 96.2958 35.2848C99.6546 35.2848 101.63 37.5043 101.63 40.8433C101.63 43.9958 99.8201 46.377 96.2958 46.377ZM96.2958 44.2998C97.9636 44.2998 98.9286 42.875 98.9286 40.8436C98.9286 38.8122 97.9862 37.3641 96.2958 37.3641C94.6519 37.3641 93.6643 38.7881 93.6643 40.8436C93.6643 42.8274 94.6046 44.2998 96.2958 44.2998Z" fill="white"/>
<path fill-rule="evenodd" clip-rule="evenodd" d="M8.6925 34.3273C7.04757 33.5572 5.68527 32.9512 5.68527 31.6904C5.68527 30.732 6.46023 30.0553 7.98673 30.0553C8.52723 30.0553 8.99801 30.101 9.46719 30.1936C9.70245 30.2415 9.95926 30.2881 10.1956 30.2881C11.5113 30.2881 12.2623 29.4942 12.7555 27.9995L12.967 27.3921C12.7555 27.2988 10.595 26.3657 7.77542 26.3657C3.288 26.3657 0.915742 29.2138 0.915742 32.2039C0.915742 33.6977 1.38572 34.772 2.11331 35.6355C3.07776 36.7322 4.41717 37.4571 5.68473 38.0639C7.54017 38.9753 9.20719 39.6287 9.20719 40.9593C9.20719 42.1511 7.98646 42.8278 6.34233 42.8278C4.06349 42.8278 2.09069 41.5442 1.8557 41.4045L0 44.8605C0.328667 45.0465 2.70172 46.5417 6.64758 46.5417C10.83 46.5417 14.0012 44.1589 14.0012 40.4697C14.0012 36.8264 11.0655 35.4725 8.6925 34.3273ZM25.067 36.0333L32.6774 26.7623H27.2514L21.1909 34.7482H21.0953V26.7623H16.6327V46.3771H16.9139C18.8412 46.3771 21.1416 45.4904 21.1416 42.2908V37.7835H21.2138L27.3916 46.1446H33.0774L25.067 36.0333Z" fill="white"/>
<path fill-rule="evenodd" clip-rule="evenodd" d="M32.9111 5.74463C31.3378 6.04911 29.0113 7.47234 29.036 9.97171C29.036 12.237 30.9157 13.6377 30.9157 16.6037C30.9157 18.8457 29.6699 20.3636 28.3311 21.2051C28.8716 21.1586 29.4589 21.135 30.1165 21.135C31.503 21.111 32.3238 21.2509 32.3717 21.2509L39.419 12.6565C37.4696 9.73918 35.1907 7.49641 32.9111 5.74463Z" fill="white"/>
<path fill-rule="evenodd" clip-rule="evenodd" d="M38.8326 28.9802C39.7249 27.6014 39.842 25.4081 39.9136 23.1894C40.0075 21.1106 40.4299 19.5461 43.2255 19.5234C43.8594 19.5234 44.4468 19.616 45.5038 19.616C49.616 19.5948 52.2943 18.192 53.9627 17.2574C50.5554 15.1101 45.5986 12.9147 39.4194 12.6567C39.0207 13.7792 35.8956 22.4193 35.6611 23.1201C35.7077 23.1412 36.249 23.7494 36.9295 24.9404C37.9405 26.575 38.4805 27.9538 38.8326 28.9802Z" fill="white"/>
<path fill-rule="evenodd" clip-rule="evenodd" d="M23.9624 21.9279C23.5879 21.9279 23.4221 21.6954 23.3748 21.2745C23.329 20.8769 21.5664 4.83469 21.3072 2.42949C21.2607 2.05517 21.167 1.42503 21.167 1.19039C21.167 0.818178 21.4262 0.608398 21.7078 0.608398C22.5298 0.608398 27.087 1.65809 31.927 5.04447C30.5405 5.41747 28.0033 6.86609 28.0264 9.85565C28.0264 12.4714 29.93 13.942 29.9529 16.5816C29.9529 20.8769 24.9734 21.9279 23.9624 21.9279Z" fill="white"/>
<path fill-rule="evenodd" clip-rule="evenodd" d="M39.2539 30.1253C39.3255 30.311 39.3958 30.4758 39.4673 30.5922C39.5839 30.7779 39.7242 30.8718 39.8899 30.8718C40.0073 30.8718 40.1478 30.8253 40.3123 30.756C40.6641 30.5922 55.3942 23.7724 57.6017 22.77C57.9315 22.6055 58.542 22.3484 58.7549 22.2312C58.9654 22.114 59.0591 21.9275 59.0591 21.7656C59.0591 21.6476 59.012 21.5545 58.9654 21.4603C58.6841 21.0167 57.2505 19.5236 54.8771 17.8877C52.9983 18.9146 50.0371 20.504 45.646 20.526C44.5639 20.526 44.3297 20.4574 43.6011 20.4574C41.4407 20.4794 40.9231 21.3905 40.828 23.2581C40.828 23.61 40.8062 24.0761 40.8062 24.5903C40.7354 26.2707 40.5239 28.5828 39.2539 30.1253Z" fill="white"/>
</svg>
