<svg width="119" height="53" viewBox="0 0 119 53" fill="none" xmlns="http://www.w3.org/2000/svg">
<path d="M15.2444 32.4035H10.3421V19.7453H15.2444C18.8949 19.7453 21.8687 22.585 21.8687 26.0778C21.8687 29.5648 18.8949 32.4035 15.2444 32.4035ZM31.5745 21.7489C29.5877 14.9078 23.0286 9.86084 15.2444 9.86084H0V42.2889H15.2444C19.1133 42.2889 22.668 41.0309 25.5272 38.9397C25.1952 37.6974 25.0006 36.4059 25.0006 35.0652V34.295C25.0006 29.1674 27.59 24.625 31.5745 21.7489Z" fill="white"/>
<path d="M32.2062 26.0779C32.2062 24.576 31.975 23.1281 31.5749 21.749C27.5924 24.6251 25.001 29.1675 25.001 34.2942V35.0643C25.001 36.405 25.1956 37.6985 25.5256 38.9418C29.5802 35.9761 32.2062 31.3197 32.2062 26.0779Z" fill="white"/>
<path d="M47.5739 35.0661C47.5739 38.2875 44.8283 40.9079 41.4574 40.9079C38.0854 40.9079 35.3418 38.2875 35.3418 35.0661V34.295C35.3418 31.0756 38.0854 28.4532 41.4574 28.4532C44.8283 28.4532 47.5739 31.0756 47.5739 34.295V35.0661ZM47.0572 19.517C46.9564 19.4816 46.8586 19.4442 46.7529 19.4108C46.7242 19.4019 46.6926 19.3931 46.6669 19.3823C46.5929 19.3587 46.5197 19.3331 46.4466 19.3115C44.8698 18.8305 43.1972 18.5669 41.4574 18.5669C37.7475 18.5669 34.3311 19.763 31.5757 21.7489C31.9768 23.1279 32.206 24.5778 32.206 26.0778C32.206 31.3195 29.58 35.976 25.5283 38.9407C27.3403 45.7404 33.7848 50.7913 41.4574 50.7913C45.0555 50.7913 48.3761 49.671 51.0871 47.7903C52.6382 49.13 54.8266 49.9956 57.915 50.4382V35.3859V35.0662V34.6324V34.295C57.915 34.0944 57.8893 33.9016 57.8824 33.7048C57.8824 33.6822 57.8808 33.6606 57.8785 33.6409V33.6153C57.8785 33.5829 57.8713 33.5513 57.8705 33.5218C51.6542 31.6058 47.1274 26.069 47.0572 19.517" fill="white"/>
<path d="M77.986 13.1739C77.99 13.1731 77.9932 13.1684 77.997 13.1668C78.0017 13.1621 78.0058 13.1589 78.0128 13.155C78.081 13.1068 78.1501 13.0586 78.2143 13.0084V2.6499H67.8762V19.3646C67.8762 22.1286 65.5238 24.3712 62.635 24.3712C59.7432 24.3712 57.3958 22.1286 57.3958 19.3646V2.6499H47.0537V19.3646V19.3823V19.4118C47.0537 19.4472 47.0553 19.4817 47.0553 19.5161C53.1343 21.6279 57.5396 27.0654 57.8706 33.5209C57.9753 33.5524 58.0741 33.5838 58.1779 33.6143C58.2065 33.6242 58.2382 33.6301 58.2698 33.6409C58.3419 33.6625 58.412 33.6851 58.4891 33.7038C59.81 34.052 61.1981 34.2566 62.6346 34.2566C66.1923 34.2566 69.4704 33.0959 72.0954 31.1661C72.2001 31.0913 72.2989 31.0097 72.4037 30.93V23.9483C72.4037 19.5633 74.596 15.6622 77.9857 13.1737" fill="white"/>
<path d="M104.777 10.3508C101.332 10.3508 98.1677 11.5331 95.7027 13.4876C93.2367 11.5331 90.0762 10.3508 86.6311 10.3508C83.6059 10.3508 80.809 11.2656 78.5021 12.804C78.4053 12.8719 78.3124 12.9416 78.2136 13.0085V19.3627C78.2136 23.9435 76.0282 28.0353 72.6148 30.7659C72.6132 30.769 72.6108 30.769 72.6059 30.7706C72.5407 30.8237 72.4725 30.8768 72.4033 30.9299V42.2908H82.7118V23.9482C82.7118 21.8836 84.4694 20.2094 86.6311 20.2094C88.7898 20.2094 90.5494 21.8836 90.5494 23.9482V42.2908H100.858V23.9482C100.858 21.8836 102.613 20.2094 104.777 20.2094C106.936 20.2094 108.695 21.8836 108.695 23.9482V42.2908H119V23.9482C119 16.453 112.622 10.3506 104.777 10.3506" fill="white"/>
<path d="M72.6157 30.7661C76.0282 28.0356 78.2156 23.9437 78.2156 19.364V13.0107C78.1504 13.0599 78.0792 13.1052 78.014 13.1543C78.0052 13.1583 78.0012 13.1622 77.9962 13.1681C77.9923 13.1681 77.9891 13.1736 77.9863 13.176C74.5976 15.6626 72.4033 19.5646 72.4033 23.9506V30.9304C72.4715 30.8773 72.5397 30.8261 72.6049 30.771C72.6104 30.7695 72.6128 30.7695 72.6158 30.7663" fill="white"/>
<path d="M47.0557 19.5176C47.1268 26.0695 51.6537 31.6063 57.869 33.5224C57.539 27.0669 53.1356 21.6284 47.0557 19.5176Z" fill="white"/>
</svg>
