<svg width="98" height="45" viewBox="0 0 98 45" fill="none" xmlns="http://www.w3.org/2000/svg">
<path fill-rule="evenodd" clip-rule="evenodd" d="M0.0185547 26.6421C0.0185547 28.4456 0.0881645 29.6207 0.517425 31.3428C0.784263 32.4132 1.16712 33.4022 1.60798 34.3912C1.92122 35.0893 2.31568 35.7293 2.69853 36.3809C3.26701 37.3466 4.02112 38.1378 4.72882 38.9755C4.96085 39.2548 5.2741 39.4759 5.51773 39.7318C5.69176 39.918 5.86578 40.046 6.06301 40.2089C6.16742 40.302 6.21383 40.3485 6.32985 40.4416L7.22317 41.1048C8.23252 41.8495 8.8242 42.0938 9.84514 42.6174C10.286 42.8385 10.8081 43.0479 11.2953 43.2108C12.9196 43.7809 14.6598 44.0951 16.4233 44.1416H17.3862C18.964 44.0951 20.5303 43.8391 21.9921 43.3388L23.6395 42.7105C25.0317 42.1055 26.7023 41.0815 27.8045 40.046C28.1989 39.6737 28.605 39.3362 28.9762 38.9406C29.1619 38.7428 29.3243 38.5101 29.5331 38.324C29.6723 38.5799 30.8789 39.6969 31.1226 39.8831C32.3059 40.8488 33.6865 41.8029 35.1135 42.3847L36.6797 42.9781C36.9698 43.0712 37.225 43.141 37.5267 43.2341L38.826 43.525C39.0117 43.5482 39.1741 43.5831 39.3249 43.5948C42.991 44.1416 46.75 43.3155 49.9172 41.4306C50.1144 41.3142 50.2537 41.2095 50.4509 41.0932C50.8105 40.8837 51.1354 40.6161 51.4718 40.3718C51.6459 40.2438 51.7967 40.1274 51.9475 39.9762C52.0403 39.8947 52.0867 39.8715 52.1795 39.79L52.8872 39.1384C52.922 39.1035 52.8988 39.1268 52.9452 39.0803C52.9452 39.0803 52.9568 39.0686 52.9684 39.057L53.1773 38.8476C53.3397 38.6614 53.5601 38.4869 53.7109 38.2891C54.0822 37.7887 54.3954 37.4629 54.8711 36.823C54.9987 36.6485 55.1031 36.4856 55.2192 36.2994C55.4512 35.9504 55.6832 35.5897 55.8689 35.2057C55.9733 34.9846 56.0661 34.845 56.1705 34.6356C56.5301 33.9258 57.2959 32.1805 57.3539 31.4591C57.5743 31.7151 57.8759 32.4016 58.0384 32.7041C58.2704 33.123 58.456 33.5651 58.7113 33.9723L61.3912 39.0337C61.4724 39.2083 61.542 39.2897 61.6233 39.4526C61.9365 40.0809 62.3774 41.0001 62.7718 41.5237C63.1547 42.0356 63.5723 42.408 64.1292 42.7454C65.6954 43.6879 67.7953 43.525 69.2107 42.408C69.35 42.3033 69.4544 42.2102 69.5704 42.0938C69.8024 41.8611 70.0345 41.6168 70.2085 41.3259C70.6145 40.6627 71.0786 39.6388 71.415 39.0803C71.5079 38.9174 71.5659 38.801 71.6471 38.6381L72.842 36.3809C72.9349 36.1947 73.0161 36.0783 73.0973 35.9154C73.6194 34.8566 74.2226 33.8094 74.7679 32.7623L75.5104 31.3777C76.1601 30.1792 76.7634 28.9575 77.4363 27.7591L78.8749 25.0248C78.9677 24.8619 79.0257 24.7571 79.1185 24.5826C79.2113 24.3965 79.281 24.3034 79.3738 24.1172L79.861 23.198C79.9539 23.0468 80.0119 22.9071 80.0931 22.7442L82.7383 17.7643C83.562 16.2633 83.4924 14.518 82.6338 13.0636C82.541 12.9007 82.4714 12.8309 82.367 12.6797L81.9957 12.2608C81.9377 12.2026 81.9725 12.2375 81.9145 12.191L81.3925 11.7605C80.998 11.4579 80.5687 11.2834 80.0931 11.1322C79.4434 10.9111 78.5965 10.8878 77.8772 11.0274C76.8446 11.2369 76.1369 11.7139 75.4408 12.3888C75.2552 12.5749 75.0116 12.9007 74.8839 13.1218L74.2342 14.3668C74.1646 14.5064 74.0834 14.6344 74.0138 14.7857C73.8746 15.0649 73.7354 15.3558 73.5846 15.6467L68.4218 25.7462C68.3522 25.8858 68.271 26.0254 68.2014 26.165L67.7837 26.9911C67.7373 27.0726 67.7257 27.1075 67.6793 27.1889C67.6445 27.2587 67.6561 27.2355 67.6329 27.2937C67.5981 27.3518 67.6097 27.3518 67.5749 27.4216C67.1688 28.143 66.786 28.8412 66.5888 29.6556L66.4844 30.0047C66.4844 30.0163 66.4727 30.0512 66.4611 30.0629C66.4263 30.1443 66.4495 30.0978 66.4263 30.1327C66.3219 29.6673 66.1943 29.1553 65.9739 28.7248C65.9043 28.5852 65.8347 28.4456 65.7534 28.2943L58.2472 13.6338C58.2008 13.5523 58.1892 13.529 58.1428 13.436C57.5163 12.1793 56.1241 11.1089 54.5927 10.946C54.4302 10.9344 54.117 10.8878 53.9894 10.8994C52.2839 11.0391 50.8569 11.807 50.0564 13.308C49.4647 14.4133 49.3719 15.6118 49.7084 16.8218C49.9288 17.6247 50.6713 18.7882 51.0774 19.5911C51.1586 19.7539 51.2282 19.8703 51.321 20.0332L53.0032 23.2096C50.2072 23.2096 47.4229 23.2096 44.6269 23.2096C43.3739 23.2096 42.2369 23.3027 41.3784 24.1637C40.9955 24.5477 40.7171 24.8502 40.4735 25.3506C39.4525 27.3867 40.3575 30.0047 42.4922 30.8192C43.3391 31.145 44.1396 31.0751 45.2649 31.0751C46.2859 31.0751 47.3068 31.0751 48.3394 31.0751C48.2002 31.3311 47.9913 31.6104 47.8057 31.8314C47.04 32.7157 46.7848 32.995 45.7406 33.6698C45.6594 33.728 45.6362 33.7396 45.555 33.7862C45.4738 33.8211 45.4274 33.856 45.3346 33.9025C43.3623 34.9148 40.5431 35.0777 38.5708 34.0771C37.9675 33.7745 37.399 33.4371 36.9002 32.9833C36.4013 32.5412 35.972 32.0409 35.5776 31.494C35.45 31.3078 35.3455 31.1217 35.2295 30.9239C34.1506 29.039 33.9069 26.549 34.603 24.4779C34.7191 24.1405 34.8235 23.838 34.9627 23.5471L35.6936 22.3021C36.0416 21.7901 36.4825 21.348 36.9466 20.9408C37.5383 20.4055 38.2344 20.0099 38.9769 19.7074C40.5895 19.0558 40.9375 19.498 42.4574 17.9621C42.6778 17.741 42.8402 17.4502 43.0026 17.1825C43.6755 16.0772 43.7567 14.3319 43.1999 13.1683C42.9678 12.6797 42.6778 12.2375 42.3065 11.8535L42.1673 11.7256C41.8541 11.4463 41.5408 11.1787 41.158 10.9925C39.2669 10.0384 36.9582 10.7947 35.1599 11.5627L33.5937 12.3539C32.5728 12.9705 31.7954 13.5058 30.8789 14.3086C30.4961 14.6344 29.9856 15.0882 29.6955 15.4721L29.3707 15.8328C28.7558 16.5659 28.1873 17.3105 27.6885 18.1366C27.4448 18.5439 27.2476 18.8929 27.0272 19.3351C25.9018 21.5807 25.2173 24.0125 25.2173 26.9446C25.2173 27.7707 25.2753 28.5619 25.3797 29.3298C25.3913 29.4113 25.4493 29.7022 25.4493 29.7953C25.4377 30.0047 25.1129 30.4003 24.9853 30.5865L23.3379 32.5412L22.6418 33.1346C22.5489 33.2044 22.4677 33.2742 22.3633 33.3557C22.2473 33.4371 22.1661 33.4837 22.0501 33.5767C20.9015 34.4145 18.9408 35.1591 17.4442 35.1591C16.9918 35.1591 16.4929 35.1941 16.0288 35.1359C15.8432 35.1126 15.7388 35.101 15.5532 35.0777C15.0427 34.9963 14.393 34.8101 13.9521 34.6239C12.0959 33.856 10.5992 32.4597 9.72913 30.6563C8.53416 28.1547 8.74299 25.2807 10.1468 22.9188C10.7965 21.825 11.7478 20.9175 12.8384 20.2543L13.8709 19.7307L15.0195 19.3583C15.4139 19.242 15.8664 19.1955 16.3073 19.1373C17.4906 18.9627 18.3723 19.0558 19.3585 18.3577C19.4281 18.3112 19.4977 18.253 19.5789 18.1948C20.5187 17.4269 21.296 16.2517 21.296 14.902C21.296 13.8897 21.1683 13.1567 20.6927 12.3539C20.6231 12.2375 20.5767 12.1444 20.4838 12.0281C19.985 11.3649 19.4745 10.9227 18.6972 10.5504C17.0034 9.72428 14.1842 10.3177 12.5947 10.69L11.4114 11.0507C11.1329 11.1438 10.9241 11.2252 10.6689 11.33C10.4136 11.4347 10.1816 11.5394 9.92636 11.6441C8.99822 12.0281 8.1165 12.5982 7.29278 13.1451C6.46907 13.6919 5.72656 14.3551 5.03046 15.0533C4.67081 15.414 4.35757 15.7165 4.04432 16.1121C3.26701 17.0778 2.52451 18.0785 1.96763 19.1955C1.89802 19.3351 1.84001 19.4165 1.782 19.5445C1.71239 19.6958 1.67759 19.7772 1.61958 19.9052L1.0163 21.3596C0.41301 22.9653 0.0301563 24.8619 0.0301563 26.6421H0.0185547Z" fill="white"/>
<path fill-rule="evenodd" clip-rule="evenodd" d="M91.3736 11.2961L91.3852 11.2142C91.1881 11.1674 90.9446 11.0621 90.7591 10.9919C89.959 10.6876 90.2489 10.6876 89.472 10.9802C89.2749 11.0504 88.9966 11.1323 88.8342 11.2142V10.1026L87.1297 9.14305L87.0137 9.13135C86.5847 9.33027 85.1933 9.78662 84.915 9.93874C83.5467 10.711 84.4627 12.946 86.0977 12.279L88.2197 11.4833C88.3588 11.4365 88.6371 11.2961 88.7878 11.2844C88.7878 11.7876 88.7299 13.1683 88.811 13.5545C89.0082 14.5023 90.1329 14.9352 90.9214 14.3033C91.1301 14.1395 91.3041 13.8704 91.3736 13.5662C91.4316 13.297 91.478 11.5418 91.3736 11.2727V11.2961Z" fill="white"/>
<path fill-rule="evenodd" clip-rule="evenodd" d="M90.0977 5.41023V5.56235L90.7702 7.46967C90.9441 7.45797 91.9993 6.82609 92.2312 6.68568C92.3472 6.61547 92.3472 6.53356 92.3936 6.65057C92.4747 6.52186 92.3704 6.59207 92.4979 6.47505L93.7386 2.90614C93.843 2.6019 93.9126 2.50829 93.901 2.12215C93.901 1.43177 93.3908 0.952009 92.811 0.858398H92.4052C92.1501 0.905204 91.9065 1.02222 91.6978 1.23284C91.4891 1.44347 91.4659 1.52538 91.35 1.82961L90.0977 5.41023Z" fill="white"/>
<path fill-rule="evenodd" clip-rule="evenodd" d="M87.7096 6.49845L87.7792 6.60377L88.9967 7.28244C89.1474 7.37606 89.275 7.42286 89.4025 7.51647L90.0867 5.56235V5.41023L89.0895 2.54339C88.8808 1.94662 88.7184 1.05732 87.8951 0.881801C87.8604 0.8701 87.814 0.8701 87.7792 0.858398H87.3849C86.8052 0.940308 86.3182 1.38496 86.2718 2.09874C86.2486 2.47319 86.5501 3.22207 86.6892 3.58482C86.8747 4.07627 87.0139 4.55603 87.1878 5.02408C87.2806 5.25811 87.3502 5.49214 87.4313 5.72616C87.4777 5.86658 87.5009 5.96019 87.5589 6.10061C87.6168 6.25273 87.6516 6.32293 87.6864 6.48675L87.7096 6.49845Z" fill="white"/>
<path fill-rule="evenodd" clip-rule="evenodd" d="M92.5092 6.47498C92.3816 6.59199 92.486 6.52178 92.4048 6.6505L91.7207 8.61633L93.089 9.13119H93.2049L96.0342 7.493C96.5328 7.21216 97.2633 6.83772 97.0546 5.8431C96.8923 5.09421 96.1386 4.68467 95.4312 4.86019C95.1761 4.9304 93.4948 5.93671 93.1122 6.14734C92.9034 6.26435 92.7295 6.38137 92.5208 6.47498H92.5092Z" fill="white"/>
<path fill-rule="evenodd" clip-rule="evenodd" d="M87.0252 9.14287L87.1412 9.15457C87.2803 9.03756 88.3007 8.72162 88.5094 8.61631C88.4399 8.46419 88.3935 8.27697 88.3355 8.11315L87.976 7.09513C87.9297 6.94301 87.8601 6.73239 87.7905 6.59197L87.7209 6.48666L86.0048 5.49204C85.8541 5.41013 85.0076 4.90698 84.8453 4.86017C84.6365 4.80166 84.2307 4.80166 84.022 4.88357C83.6277 5.02399 83.2335 5.42184 83.1755 5.86649C83.0132 7.06003 83.906 7.30575 84.7525 7.82062L86.4686 8.80353C86.5962 8.87374 86.9556 9.06096 87.0368 9.13117L87.0252 9.14287Z" fill="white"/>
<path fill-rule="evenodd" clip-rule="evenodd" d="M91.3855 11.2142L91.3739 11.2961C91.5478 11.3078 92.2783 11.6003 92.4755 11.6822C92.6494 11.7525 92.8117 11.811 92.9973 11.8812L94.0641 12.2907C94.667 12.5364 95.2584 12.4194 95.6526 11.9163C96.1744 11.2493 95.9309 10.3015 95.2816 9.95044C95.1192 9.86853 94.9453 9.81003 94.7598 9.73982L93.1828 9.13135H93.0668L91.3623 10.1026L91.3739 11.2142H91.3855Z" fill="white"/>
</svg>
