<svg width="119" height="23" viewBox="0 0 119 23" fill="none" xmlns="http://www.w3.org/2000/svg">
<path d="M33.2051 0.0166016C24.7731 0.0166016 19.7227 5.15308 19.7227 11.5037C19.7227 17.8446 24.7731 22.9833 33.2051 22.9833C41.6344 22.9833 46.6924 17.8446 46.6924 11.5037C46.6924 5.15308 41.635 0.0166016 33.2051 0.0166016ZM33.2051 20.5185C29.1623 20.5185 26.091 16.4745 26.091 11.5032C26.091 6.50986 29.1623 2.47329 33.2051 2.47329C37.2496 2.47329 40.3198 6.50986 40.3198 11.5032C40.3198 16.4745 37.2496 20.5185 33.2051 20.5185Z" fill="white"/>
<path d="M71.0079 0.80957H47.8428V3.388H56.7146V22.0543H63.4077V3.388H71.0079V0.80957Z" fill="white"/>
<path d="M96.3896 0.80957H73.2256V3.388H80.822V22.0543H87.5017V3.388H96.3896V0.80957Z" fill="white"/>
<path d="M7.69159 19.503C6.98668 19.503 6.41405 18.9361 6.41405 18.2357V0.811523H0V19.5153C0 20.9096 1.13936 22.0364 2.55293 22.0364H18.955V19.5024H7.69159V19.503Z" fill="white"/>
<path d="M106.649 3.34724H119V0.80957H101.505C100.095 0.80957 98.9473 1.98188 98.9473 3.36333V19.5166C98.9473 20.9098 100.095 22.0365 101.505 22.0365H119V19.5311H106.649C105.947 19.5311 105.372 18.9706 105.372 18.2697V12.0146H118.809V9.53643H105.372V4.61125C105.372 3.91784 105.947 3.34724 106.649 3.34724Z" fill="white"/>
</svg>
