<svg width="120" height="53" viewBox="0 0 120 53" fill="none" xmlns="http://www.w3.org/2000/svg">
<path d="M0 43.7249H9.89452V18.7971H15.5544V43.7249H25.4091V18.7971H31.0689V43.7249H40.9236V17.4528C40.9235 16.0575 40.7124 14.8528 40.2901 13.8389C39.8677 12.8249 39.2608 11.9756 38.4693 11.2907C37.6519 10.606 36.6694 10.0988 35.5216 9.76922C34.3737 9.4397 33.0739 9.27493 31.6221 9.2749H9.30027C7.84925 9.27493 6.54983 9.4397 5.40201 9.76922C4.25416 10.0988 3.28448 10.606 2.49295 11.2907C1.67485 11.9756 1.05483 12.8249 0.632901 13.8389C0.210964 14.8528 -2.40293e-06 16.0575 0 17.4528V43.7249ZM119.842 9.2749H95.5016C94.024 9.27493 92.7113 9.46603 91.5635 9.84818C90.4156 10.2304 89.4592 10.7639 88.6943 11.4487C87.9293 12.1592 87.3489 13.0217 86.9533 14.036C86.5574 15.0504 86.3595 16.1764 86.3596 17.4142V35.705C86.3595 36.8375 86.5375 37.891 86.8935 38.8656C87.2493 39.8401 87.7968 40.6831 88.5361 41.3944C89.2744 42.1314 90.2308 42.7041 91.4053 43.1124C92.5796 43.5207 93.9978 43.7249 95.6599 43.7249C107.691 43.7249 114.756 43.7249 116.854 43.7249C118.951 43.7249 120 43.7249 120 43.7249V34.3619H96.5706V18.7175H119.842V9.2749ZM83.5889 34.5198C83.5888 32.8874 83.2721 31.485 82.6389 30.3127C82.0055 29.1405 81.1216 28.1858 79.9871 27.4487C78.8525 26.7109 77.5068 26.1708 75.95 25.8284C74.393 25.486 72.7043 25.3148 70.8837 25.3148C72.1503 25.3148 73.4169 25.1765 74.6835 24.9C75.9501 24.6235 77.0979 24.1694 78.1271 23.5376C79.1295 22.9316 79.9474 22.1347 80.5808 21.1469C81.214 20.159 81.5306 18.9542 81.5307 17.5323C81.5306 16.1362 81.2734 14.9246 80.7589 13.8973C80.2443 12.8702 79.4991 12.0141 78.5232 11.3293C77.5464 10.6445 76.3656 10.1376 74.9807 9.8084C73.5956 9.47929 72.0456 9.30146 70.3305 9.2749H46.1873V43.7249H70.5274C72.2425 43.7249 73.8917 43.5603 75.4753 43.2312C77.0587 42.9021 78.4571 42.3686 79.6707 41.6307C80.8575 40.8937 81.8072 39.9392 82.5199 38.7673C83.2325 37.5954 83.5888 36.1796 83.5889 34.5198ZM70.8837 34.3221H56.24V18.7573H70.8837V34.3221Z" fill="white"/>
</svg>
