<svg width="120" height="28" viewBox="0 0 120 28" fill="none" xmlns="http://www.w3.org/2000/svg">
<g clip-path="url(#clip0)">
<path fill-rule="evenodd" clip-rule="evenodd" d="M13.901 4.143L11.5169 6.1985C11.2017 5.49086 10.6933 4.88857 10.0513 4.46219C9.40928 4.03581 8.66025 3.803 7.89193 3.79102C5.24293 3.79102 3.70929 4.8047 3.70929 7.80349V12.0271C3.70929 13.1534 4.16938 16.1241 7.16694 16.1241C8.02548 16.12 8.86912 15.8972 9.61974 15.4764C10.3704 15.0556 11.0037 14.4503 11.4611 13.7166L14.0125 15.6736C13.2936 16.8269 12.2923 17.7736 11.1054 18.4222C9.9185 19.0708 8.58603 19.3994 7.23665 19.3763C6.2997 19.4345 5.36092 19.2968 4.47914 18.9716C3.59736 18.6465 2.79158 18.1409 2.11228 17.4867C1.43298 16.8325 0.89479 16.0436 0.531436 15.1696C0.168082 14.2955 -0.0126086 13.3551 0.00068357 12.4073C0.00068357 9.36625 0.0982781 9.9294 0.0982781 6.97284C0.164903 5.33463 0.832724 3.78004 1.97178 2.6116C3.11084 1.44316 4.63964 0.744454 6.2607 0.651445C7.73365 0.400753 9.24717 0.599012 10.608 1.22091C11.9689 1.84281 13.1153 2.86013 13.901 4.143Z" fill="white"/>
<path fill-rule="evenodd" clip-rule="evenodd" d="M33.3077 0.961426H36.9326C36.9326 0.961426 36.9326 9.23977 36.9326 11.3094C36.9326 13.3789 37.7273 16.1947 40.5018 16.1947C43.2763 16.1947 44.3777 14.9136 44.3777 11.4079V1.07405H47.9887V19.278H44.8239V17.6308C43.3074 18.8201 41.4459 19.4731 39.5258 19.4892C37.8431 19.4268 36.2511 18.703 35.0894 17.4721C33.9277 16.2411 33.2883 14.6005 33.3077 12.9003C33.3077 9.08491 33.2658 0.961426 33.3077 0.961426Z" fill="white"/>
<path fill-rule="evenodd" clip-rule="evenodd" d="M100.968 19.4891H97.3295C97.3295 19.4891 97.3295 11.2108 97.3295 9.14119C97.3295 7.0716 96.5347 4.25583 93.7742 4.25583C91.0137 4.25583 89.8983 6.18463 89.8983 9.49316V19.3483H86.3291V1.17256H89.4243V2.81979C89.4243 2.81979 90.4142 0.834675 94.3458 0.961384C95.217 0.924371 96.0864 1.06871 96.9 1.38545C97.7136 1.70218 98.454 2.18452 99.0751 2.8025C99.6962 3.42047 100.185 4.16085 100.511 4.97763C100.836 5.7944 100.992 6.67009 100.968 7.55027C100.968 11.3516 100.968 19.4891 100.968 19.4891Z" fill="white"/>
<path fill-rule="evenodd" clip-rule="evenodd" d="M21.9446 0.609375H23.7989C25.4604 0.616828 27.0512 1.28953 28.2222 2.4799C29.3931 3.67027 30.0487 5.28108 30.045 6.95893V12.9565C30.045 14.6319 29.3878 16.2391 28.2172 17.4264C27.0467 18.6138 25.458 19.2845 23.7989 19.292H21.9446C20.2842 19.2846 18.6941 18.6142 17.5213 17.4273C16.3485 16.2404 15.6882 14.6332 15.6846 12.9565V6.95893C15.6846 5.28109 16.3437 3.67177 17.5172 2.48404C18.6908 1.29631 20.283 0.62718 21.9446 0.623451V0.609375ZM22.1955 3.79119C21.2718 3.90111 20.4266 4.36946 19.8386 5.09723C19.2506 5.825 18.9659 6.75514 19.0446 7.69103V12.1963C18.9661 13.1306 19.2512 14.0591 19.8395 14.7846C20.4278 15.5101 21.273 15.9755 22.1955 16.082H23.5898C24.5123 15.9755 25.3575 15.5101 25.9458 14.7846C26.5341 14.0591 26.8192 13.1306 26.7407 12.1963V7.69103C26.8195 6.75514 26.5348 5.825 25.9467 5.09723C25.3587 4.36946 24.5135 3.90111 23.5898 3.79119H22.1955Z" fill="white"/>
<path fill-rule="evenodd" clip-rule="evenodd" d="M51.4463 1.07412V26.585H55.364V18.1377C55.364 18.1377 56.1727 19.4188 59.7558 19.4188C61.429 19.4069 63.0346 18.7504 64.2447 17.5834C65.4547 16.4164 66.178 14.827 66.2668 13.1397V6.95907C66.2668 5.15698 64.7471 0.989647 60.6899 0.778464C56.6328 0.567282 55.4616 1.67951 54.9597 2.73542V1.0178H51.4881L51.4463 1.07412ZM58.2082 3.79133H59.9928C60.9166 3.90126 61.7618 4.36961 62.3498 5.09737C62.9378 5.82514 63.2225 6.75529 63.1437 7.69117V12.1964C63.2223 13.1307 62.9372 14.0592 62.3488 14.7847C61.7605 15.5102 60.9154 15.9756 59.9928 16.0822H58.2082C57.2856 15.9756 56.4405 15.5102 55.8522 14.7847C55.2639 14.0592 54.9787 13.1307 55.0573 12.1964V7.69117C54.9785 6.75529 55.2632 5.82514 55.8512 5.09737C56.4393 4.36961 57.2845 3.90126 58.2082 3.79133Z" fill="white"/>
<path fill-rule="evenodd" clip-rule="evenodd" d="M69.8361 2.29866L71.3139 4.77654C72.6297 3.92853 74.2008 3.57932 75.7475 3.79102C76.2397 3.78507 76.7275 3.88574 77.1779 4.08624C77.6283 4.28673 78.0308 4.5824 78.3585 4.95331C78.6862 5.32421 78.9313 5.76174 79.0774 6.2364C79.2234 6.71106 79.267 7.21183 79.2052 7.70494C77.9496 6.93418 76.4884 6.57514 75.0225 6.67718C73.7136 6.63939 72.4256 7.01522 71.3384 7.75221C70.2511 8.4892 69.4188 9.55057 68.9577 10.7882C68.4 13.0549 68.4558 18.3485 72.9312 19.2355C77.4067 20.1225 79.5119 17.6446 79.5119 17.6446V19.3481H82.5653V6.36745C82.5653 -0.108813 73.6562 -1.20697 69.7803 2.29866H69.8361ZM75.2875 9.61966H75.7475C76.5562 9.62336 77.3307 9.94939 77.9025 10.5268C78.4743 11.1042 78.7972 11.8863 78.8009 12.7029V13.3224C78.7972 14.139 78.4743 14.9211 77.9025 15.4985C77.3307 16.0759 76.5562 16.402 75.7475 16.4057H75.2875C74.4788 16.402 73.7043 16.0759 73.1325 15.4985C72.5607 14.9211 72.2378 14.139 72.2341 13.3224V12.7029C72.2378 11.8863 72.5607 11.1042 73.1325 10.5268C73.7043 9.94939 74.4788 9.62336 75.2875 9.61966Z" fill="white"/>
<path fill-rule="evenodd" clip-rule="evenodd" d="M115.343 2.24244C115.895 1.58548 116.64 1.12244 117.469 0.920028C118.298 0.717615 119.17 0.786281 119.958 1.11613V3.84743C119.456 3.67774 118.919 3.64172 118.398 3.74283C117.878 3.84394 117.393 4.07878 116.989 4.42466C117.404 5.30439 117.623 6.2657 117.63 7.24043C117.668 8.88282 117.062 10.4739 115.945 11.668C114.827 12.8622 113.289 13.563 111.663 13.6181C109.571 13.6181 108.874 13.7589 107.006 16.4339C106.713 17.0111 107.229 16.7718 107.229 16.7718C109.62 15.9929 112.167 15.8379 114.632 16.3213C115.966 16.5596 117.182 17.245 118.082 18.2668C118.983 19.2887 119.516 20.5872 119.596 21.9528C119.679 24.9516 115.134 27.697 115.134 27.697L113.573 25.0642C115.065 23.5578 117.058 22.5441 115.162 20.4323C113.266 18.3205 108.581 19.4749 106.393 19.9677C104.204 20.4605 103.716 18.067 103.911 16.2509C104.094 15.5066 104.421 14.8061 104.873 14.19C105.325 13.5739 105.894 13.0541 106.546 12.6608C105.683 12.0609 104.978 11.2575 104.492 10.3204C104.006 9.38319 103.754 8.3405 103.758 7.28266C103.72 5.64027 104.325 4.0492 105.443 2.85506C106.56 1.66091 108.099 0.960139 109.725 0.904952H111.663C112.992 0.914345 114.277 1.38678 115.302 2.24244H115.343ZM110.478 3.81927C109.578 3.77703 108.699 4.09498 108.031 4.70399C107.362 5.313 106.959 6.16384 106.908 7.07148V7.71911C106.962 8.62425 107.367 9.47151 108.035 10.0775C108.703 10.6836 109.581 10.9996 110.478 10.9572H111.007C111.904 10.9996 112.782 10.6836 113.45 10.0775C114.118 9.47151 114.523 8.62425 114.577 7.71911V7.07148C114.526 6.16384 114.123 5.313 113.455 4.70399C112.786 4.09498 111.907 3.77703 111.007 3.81927H110.478Z" fill="white"/>
</g>
<defs>
<clipPath id="clip0">
<rect width="120" height="27.3833" fill="white" transform="translate(0 0.341797)"/>
</clipPath>
</defs>
</svg>
