<svg width="118" height="53" viewBox="0 0 118 53" fill="none" xmlns="http://www.w3.org/2000/svg">
<path d="M48.7947 18.9252C54.219 15.2803 59.0428 15.4027 62.7817 19.3007C63.6682 20.1808 64.3729 21.233 64.8542 22.3953C65.3355 23.5576 65.5836 24.8064 65.5839 26.068C65.5839 30.3496 65.5839 34.6393 65.5839 38.9168C65.5639 41.6066 64.2469 43.0923 61.9811 43.076C59.7153 43.0597 58.5024 41.6066 58.4903 38.8393C58.4903 34.9618 58.4903 31.0843 58.4903 27.2149C58.4903 24.6843 57.3294 23.2761 55.3919 23.3251C53.5184 23.37 52.5136 24.6557 52.4936 27.1741C52.4576 31.1169 52.4936 35.0597 52.4616 39.0107C52.4616 40.9536 51.757 42.5127 49.7394 42.9944C47.2975 43.578 45.368 42.0107 45.336 39.3862C45.2759 35.2393 45.428 31.0883 45.2399 26.9496C45.1434 25.7086 44.5674 24.5576 43.6386 23.7496C41.7732 22.3537 39.4353 23.9782 39.3673 26.6435C39.2632 30.7863 39.3232 34.9373 39.2392 39.0801C39.1871 41.5781 37.9301 42.9821 35.8725 43.076C33.8149 43.1699 32.1696 41.876 32.1296 39.7332C32.0375 34.8352 31.8494 29.9373 32.1896 25.0598C32.686 17.9619 40.9045 13.9946 47.0013 17.6884C47.6218 18.0599 48.2222 18.517 48.7947 18.9252Z" fill="white"/>
<path d="M0.0240179 26.3577C0.0240179 22.4149 0.0240179 18.472 0.0240179 14.521C0.0240179 11.3904 1.22496 9.82719 3.49875 9.81495C5.77254 9.8027 7.03354 11.4027 7.04555 14.4516C7.04555 16.7618 7.08158 19.0761 7.04555 21.3904C7.02554 22.5128 7.44586 22.9781 8.56274 22.9699C11.9654 22.9291 15.3668 22.9291 18.7668 22.9699C19.9677 22.9699 20.2199 22.3985 20.2039 21.3373C20.1599 18.8883 20.1679 16.4394 20.2039 13.9904C20.2359 11.4762 21.569 9.88434 23.6386 9.81495C25.8123 9.74148 27.3175 11.3251 27.3335 13.9455C27.3789 22.2448 27.3789 30.544 27.3335 38.8433C27.3335 41.5331 25.9284 42.9984 23.6666 42.9617C21.525 42.9249 20.2439 41.4392 20.2039 38.8801C20.1679 36.5005 20.1399 34.1168 20.2039 31.7413C20.2439 30.4556 19.8716 29.8964 18.5266 29.9209C15.26 29.9862 11.9934 29.9862 8.72687 29.9209C7.38181 29.8964 6.99351 30.4597 7.02953 31.7454C7.09759 34.0556 7.06156 36.3698 7.02953 38.6841C7.00952 41.4963 5.82859 42.9494 3.60284 42.978C1.23697 43.0147 0.0360284 41.5943 0 38.6311C0.00400315 34.5168 0.0240179 30.4393 0.0240179 26.3577Z" fill="white"/>
<path d="M95.5592 34.2108C95.5592 35.9781 95.5872 37.7454 95.5592 39.5168C95.5072 41.8801 94.1861 43.2923 92.0444 43.3494C89.8067 43.4025 88.3055 41.9862 88.2495 39.5699C88.1694 36.3046 88.2495 33.0393 88.1814 29.7741C88.1608 28.3755 87.6845 27.0237 86.8275 25.9315C85.9705 24.8394 84.7815 24.069 83.4477 23.7416C82.114 23.4143 80.7114 23.5486 79.4608 24.1235C78.2102 24.6984 77.1827 25.6812 76.5402 26.9169C75.1912 29.4924 75.6395 32.9169 77.9173 34.6965C79.1444 35.5874 80.5751 36.1425 82.0726 36.3087C84.9388 36.6638 86.5001 37.9413 86.348 40.3087C86.2078 42.5372 84.5025 43.8066 81.7604 43.7209C79.9703 43.6761 78.2066 43.27 76.5714 42.5262C74.9361 41.7823 73.4617 40.7153 72.2333 39.3869C71.0049 38.0586 70.0469 36.4951 69.4147 34.787C68.7825 33.0789 68.4886 31.2599 68.55 29.4353C68.7141 22.0884 74.7428 16.1905 82.0926 16.2068C83.8624 16.1954 85.6168 16.5425 87.254 17.2279C88.8912 17.9133 90.3786 18.9235 91.6299 20.1997C92.8812 21.4759 93.8715 22.9927 94.5432 24.6622C95.215 26.3317 95.5549 28.1206 95.5432 29.9251C95.5672 31.3577 95.5592 32.7863 95.5592 34.2108Z" fill="white"/>
<path d="M99.3819 26.2965C99.3819 21.9496 99.3819 17.5986 99.3819 13.2353C99.3819 10.6599 100.611 9.32108 102.905 9.27618C105.307 9.22721 106.684 10.5823 106.692 13.2027C106.718 21.9645 106.718 30.7304 106.692 39.5004C106.692 42.1494 105.343 43.6024 103.033 43.6065C100.723 43.6106 99.3859 42.1657 99.3739 39.5249C99.3699 35.1209 99.3819 30.7128 99.3819 26.2965Z" fill="white"/>
<path d="M117.993 26.3862C117.993 30.8025 117.993 35.2188 117.993 39.631C117.993 42.1861 116.736 43.582 114.486 43.6228C112.152 43.6677 110.735 42.2514 110.723 39.6269C110.686 30.7944 110.686 21.9631 110.723 13.1333C110.723 10.5986 112.08 9.28841 114.39 9.29249C116.792 9.29249 117.993 10.5496 117.993 13.1374C118.009 17.57 117.993 21.9699 117.993 26.3862Z" fill="white"/>
</svg>
