<svg width="120" height="25" viewBox="0 0 120 25" fill="none" xmlns="http://www.w3.org/2000/svg">
<ellipse cx="4.39509" cy="7.09399" rx="4.39509" ry="4.44311" fill="white"/>
<ellipse cx="4.39509" cy="20.4236" rx="4.39509" ry="4.44311" fill="white"/>
<ellipse cx="17.5806" cy="7.09399" rx="4.39509" ry="4.44311" fill="white"/>
<ellipse cx="17.5806" cy="20.4236" rx="4.39509" ry="4.44311" fill="white"/>
<path d="M104.347 0.133301C104.903 0.273665 105.401 0.587011 105.772 1.0291C106.063 1.42173 106.229 1.89462 106.249 2.38502C106.268 2.87541 106.139 3.36011 105.879 3.77479C105.62 4.18946 105.241 4.51451 104.795 4.70679C104.348 4.89907 103.854 4.94947 103.378 4.85133C102.895 4.74964 102.457 4.4943 102.128 4.12268C101.799 3.75106 101.596 3.28269 101.549 2.78612C101.415 1.50436 102.079 0.533677 103.327 0.193795C103.356 0.179116 103.382 0.159635 103.404 0.136184L104.347 0.133301Z" fill="white"/>
<path d="M81.0885 15.448C81.0885 13.907 81.0885 12.3631 81.0885 10.8192C81.0698 10.5541 81.1241 10.2889 81.2453 10.053C81.3665 9.81713 81.5499 9.61976 81.7752 9.48275C83.9121 8.08865 86.1858 7.63356 88.6361 8.4919C89.121 8.675 89.5563 8.97104 89.9069 9.35601C90.0664 9.52307 90.1605 9.53172 90.3514 9.39346C92.1578 8.06273 94.1693 7.78333 96.2948 8.32484C98.1212 8.78858 99.0842 10.0847 99.429 11.9022C99.5257 12.4227 99.5744 12.9511 99.5743 13.4807C99.5743 15.7504 99.5743 18.0201 99.5743 20.2899C99.587 20.699 99.4501 21.0985 99.1898 21.4121C98.9296 21.7257 98.5641 21.9314 98.1634 21.9898C97.7626 22.0482 97.3546 21.9554 97.0172 21.7289C96.6799 21.5025 96.4369 21.1583 96.3347 20.7622C96.2909 20.5844 96.2736 20.4009 96.2834 20.2178C96.2834 18.1209 96.2834 16.024 96.2834 13.9271C96.2921 13.5233 96.2461 13.1201 96.1467 12.7289C96.0538 12.3453 95.8408 12.0024 95.5394 11.7512C95.238 11.5 94.8644 11.3539 94.4742 11.3348C93.7097 11.2537 92.939 11.4116 92.266 11.787C92.1727 11.8268 92.0946 11.8959 92.0432 11.9841C91.9919 12.0723 91.9701 12.1749 91.9811 12.2767C91.9811 14.9036 91.9811 17.5305 91.9811 20.1574C91.9811 20.8688 91.7503 21.4449 91.1092 21.7963C90.8572 21.9326 90.5744 22.0003 90.2886 21.9928C90.0029 21.9853 89.724 21.9029 89.4792 21.7536C89.2344 21.6043 89.0323 21.3933 88.8925 21.1413C88.7527 20.8892 88.68 20.6048 88.6817 20.3158C88.6817 18.1382 88.6817 15.9607 88.6817 13.7831C88.6855 13.4258 88.6434 13.0695 88.5563 12.7232C88.4828 12.37 88.3017 12.0491 88.0386 11.8053C87.7754 11.5614 87.4434 11.407 87.089 11.3636C86.2507 11.2156 85.3876 11.3695 84.6501 11.7986C84.5642 11.8394 84.493 11.9063 84.4465 11.9899C84.4001 12.0736 84.3806 12.1698 84.3908 12.2652C84.3908 14.9381 84.3908 17.6111 84.3908 20.2841C84.4026 20.5533 84.3489 20.8213 84.2344 21.0647C84.1199 21.308 83.9481 21.5192 83.7341 21.6799C83.5201 21.8405 83.2704 21.9456 83.0068 21.986C82.7433 22.0264 82.474 22.0008 82.2225 21.9115C81.8807 21.7895 81.586 21.5608 81.3812 21.2584C81.1763 20.9561 81.0718 20.5957 81.0828 20.2294C81.0828 18.6279 81.0885 17.0379 81.0885 15.448Z" fill="white"/>
<path d="M108.188 15.4393C108.188 13.8609 108.188 12.2709 108.188 10.7069C108.174 10.436 108.236 10.1666 108.366 9.92968C108.497 9.69273 108.691 9.49786 108.926 9.36752C110.029 8.714 111.256 8.30645 112.528 8.17218C113.759 7.98672 115.014 8.02573 116.232 8.28738C118.403 8.80584 119.756 10.3929 119.936 12.6367C120.049 13.9473 119.975 15.2607 119.99 16.5713C120.004 17.7811 119.99 18.9908 119.99 20.2006C119.99 21.2404 119.309 21.9749 118.349 21.9777C118.12 21.9808 117.893 21.9365 117.682 21.8476C117.471 21.7587 117.28 21.6271 117.122 21.4609C116.963 21.2947 116.839 21.0974 116.759 20.8811C116.678 20.6649 116.642 20.4342 116.653 20.2034C116.653 18.0604 116.653 15.9175 116.653 13.7745C116.653 12.3343 115.798 11.4212 114.374 11.3204C113.518 11.2636 112.662 11.4095 111.872 11.7467C111.752 11.7816 111.649 11.8592 111.582 11.9651C111.514 12.071 111.487 12.1981 111.505 12.3228C111.505 14.9468 111.505 17.5737 111.505 20.2006C111.505 21.2634 110.832 21.9893 109.844 21.9864C108.855 21.9835 108.177 21.2202 108.177 20.1833C108.185 18.5962 108.188 17.0178 108.188 15.4393Z" fill="white"/>
<path d="M36.3958 8.06299C38.1053 8.08315 39.2877 8.26749 40.4046 8.7802C40.8862 8.9991 41.3506 9.25833 41.5728 9.78544C41.6961 10.0549 41.7397 10.3546 41.6982 10.6485C41.6568 10.9423 41.5321 11.2178 41.3392 11.4416C41.1607 11.6539 40.9273 11.8116 40.665 11.8971C40.4028 11.9825 40.1222 11.9924 39.8547 11.9255C39.5761 11.8638 39.3061 11.767 39.0512 11.6375C38.1363 11.1869 37.1144 11.0052 36.1023 11.1133C35.736 11.1412 35.3883 11.2876 35.1108 11.5309C34.9975 11.6289 34.9088 11.7526 34.8518 11.8918C34.7949 12.0311 34.7713 12.182 34.7829 12.3322C34.7946 12.4824 34.8412 12.6277 34.919 12.7563C34.9967 12.8848 35.1035 12.993 35.2304 13.0719C35.7035 13.3504 36.2264 13.5315 36.769 13.6048C37.6538 13.7592 38.5283 13.9689 39.3875 14.2327C40.1421 14.4766 40.8267 14.9027 41.3819 15.4742C42.5472 16.7329 42.4475 19.1581 41.3449 20.5263C40.5104 21.5388 39.3124 22.1749 38.0141 22.2949C36.2703 22.5442 34.4922 22.2896 32.8855 21.5604C32.4682 21.3781 32.0833 21.128 31.7458 20.8201C31.5135 20.62 31.3453 20.3546 31.2626 20.0577C31.18 19.7607 31.1865 19.4456 31.2814 19.1524C31.3563 18.8779 31.5119 18.6328 31.7277 18.4497C31.9434 18.2666 32.2091 18.1541 32.4895 18.127C32.9013 18.0919 33.3123 18.2029 33.652 18.4409C34.881 19.1656 36.3118 19.4612 37.7235 19.282C37.9964 19.2514 38.2597 19.162 38.4956 19.0199C38.654 18.9316 38.7866 18.803 38.8804 18.6467C38.9742 18.4904 39.0259 18.312 39.0302 18.1293C39.0345 17.9466 38.9914 17.7659 38.9051 17.6053C38.8188 17.4447 38.6924 17.3097 38.5384 17.2139C38.0138 16.9051 37.4318 16.709 36.8288 16.6378C35.8369 16.4915 34.8683 16.2136 33.9483 15.8112C32.7602 15.2351 31.8398 14.394 31.6461 13.0143C31.3754 11.096 32.1504 9.4974 33.954 8.63329C34.7196 8.27295 35.5514 8.07869 36.3958 8.06299Z" fill="white"/>
<path d="M57.9155 16.1742V12.4067C57.9155 9.89505 59.1863 8.40303 61.648 8.11211C62.6687 7.9832 63.7041 8.0457 64.7024 8.29646C65.3577 8.46928 65.9133 8.80916 66.127 9.51773C66.4575 10.6699 65.5002 11.7068 64.2836 11.5081C63.8335 11.4086 63.3777 11.3384 62.9188 11.2978C61.799 11.2632 61.2662 11.7644 61.2577 12.9022C61.2577 14.3423 61.2577 15.7825 61.2577 17.2227C61.2577 18.2452 61.2577 19.2706 61.2577 20.296C61.2621 20.6745 61.1377 21.0431 60.9053 21.3399C60.6729 21.6367 60.3467 21.8438 59.9812 21.9263C59.6266 22.0252 59.2496 22.0018 58.9096 21.86C58.5696 21.7181 58.286 21.4658 58.1036 21.1429C57.9734 20.899 57.9086 20.6249 57.9155 20.3479C57.9184 18.9624 57.9155 17.5683 57.9155 16.1742Z" fill="white"/>
<path d="M105.45 12.6455C105.45 14.1548 105.464 15.6612 105.45 17.1705C105.458 17.4253 105.406 17.6783 105.296 17.908C105.187 18.1377 105.024 18.3373 104.822 18.4897C104.62 18.6422 104.385 18.7431 104.136 18.7837C103.887 18.8243 103.632 18.8035 103.393 18.7231C103.075 18.6054 102.801 18.3927 102.606 18.1132C102.411 17.8338 102.305 17.5009 102.302 17.159C102.302 14.1404 102.302 11.1227 102.302 8.10604C102.283 7.88664 102.31 7.66575 102.38 7.45736C102.451 7.24896 102.563 7.05761 102.71 6.89542C102.858 6.73323 103.037 6.60375 103.236 6.51517C103.435 6.4266 103.651 6.38086 103.869 6.38086C104.086 6.38086 104.302 6.4266 104.501 6.51517C104.701 6.60375 104.88 6.73323 105.027 6.89542C105.174 7.05761 105.287 7.24896 105.357 7.45736C105.428 7.66575 105.454 7.88664 105.436 8.10604C105.459 9.62687 105.45 11.1362 105.45 12.6455Z" fill="white"/>
<path fill-rule="evenodd" clip-rule="evenodd" d="M78.3505 19.452V15.9063C78.3334 15.5049 78.3424 15.0668 78.3519 14.6066C78.3676 13.8417 78.3846 13.0153 78.285 12.1935C78.0685 10.3904 77.1824 9.07121 75.4358 8.49513C73.2105 7.76928 70.991 7.97377 68.8056 8.75147C68.5605 8.84884 68.3424 9.00503 68.1703 9.20657C67.5862 9.83737 67.6546 11.3236 68.9196 11.5656C69.3599 11.6296 69.8091 11.5831 70.2274 11.4302C71.2055 11.113 72.2343 10.9869 73.259 11.0586C74.3873 11.1508 75.0169 11.7067 75.1281 12.7466C75.136 12.8632 75.1353 12.973 75.1346 13.0861C75.1338 13.2159 75.133 13.3501 75.1452 13.5041C75.168 13.7921 75.0967 13.8641 74.8118 13.7921C73.3954 13.4188 71.9157 13.3618 70.4753 13.6251C69.1732 13.8756 68.062 14.446 67.3981 15.6845C66.3667 17.6086 66.9422 20.8058 70.1305 21.7074C72.6943 22.3058 75.3864 21.9285 77.6924 20.6474C77.9035 20.5324 78.0776 20.3587 78.1942 20.1469C78.3109 19.9351 78.3651 19.694 78.3505 19.452ZM75.1482 18.2106V17.3465V16.3528C75.1482 16.3488 75.1482 16.3449 75.1482 16.341C75.1484 16.2307 75.1485 16.1353 74.9972 16.0935C73.9401 15.8026 72.8688 15.5837 71.769 15.7853C71.4907 15.8176 71.2229 15.9118 70.9849 16.0612C70.747 16.2106 70.5447 16.4115 70.3928 16.6495C69.8201 17.6086 70.3472 18.7867 71.5154 19.0747C72.6512 19.3609 73.8513 19.2164 74.8889 18.6686C74.9783 18.635 75.0532 18.5708 75.1006 18.4871C75.148 18.4034 75.1648 18.3056 75.1482 18.2106Z" fill="white"/>
<path fill-rule="evenodd" clip-rule="evenodd" d="M55.1775 17.1875C55.1791 16.7673 55.1809 16.3266 55.1809 15.8543C55.1628 15.4619 55.1709 15.0326 55.1795 14.5811C55.1938 13.8228 55.2093 13.0018 55.1039 12.1876C54.8732 10.3154 53.8959 9.00192 52.0923 8.44313C50.2887 7.88434 48.4795 8.01395 46.6788 8.4172C46.1842 8.50364 45.7104 8.68448 45.2826 8.95006C45.0139 9.12903 44.8107 9.39219 44.7041 9.69918C44.5976 10.0062 44.5936 10.34 44.6929 10.6495C44.7811 10.9447 44.9659 11.2009 45.2169 11.3762C45.4679 11.5514 45.7704 11.6354 46.0747 11.6144C46.4155 11.605 46.7527 11.5428 47.0748 11.4301C48.0324 11.1229 49.0384 10.9998 50.0409 11.0671C51.1236 11.1507 51.739 11.6403 51.9185 12.5908C51.9536 12.9574 51.9631 13.3261 51.947 13.694C51.9527 13.864 51.8501 13.8467 51.7447 13.8236C51.6519 13.8038 51.5595 13.7825 51.467 13.7612C51.304 13.7236 51.1409 13.686 50.9754 13.6566C49.4083 13.3858 47.847 13.3484 46.3255 13.9014C45.5529 14.158 44.8843 14.6625 44.4215 15.3384C43.9586 16.0143 43.7268 16.8246 43.7612 17.6459C43.7868 19.6074 45.0091 21.1542 46.9637 21.7043C49.5066 22.2909 52.1737 21.9234 54.4686 20.6703C54.6968 20.551 54.8858 20.3671 55.0123 20.141C55.1388 19.9148 55.1974 19.6564 55.1809 19.3971C55.1716 18.6845 55.1744 17.9718 55.1775 17.1875ZM51.967 18.052C51.9499 17.8113 51.9499 17.5697 51.967 17.329C51.967 17.0027 51.9643 16.6791 51.9615 16.3476L51.9613 16.3237C51.9641 16.1999 51.9499 16.1135 51.8017 16.0731C50.7532 15.7822 49.6962 15.5777 48.6049 15.7592C47.8071 15.8917 47.1717 16.4274 47.0378 17.0611C46.8384 18.0001 47.3341 18.8037 48.3114 19.0572C49.3787 19.3278 50.5051 19.2263 51.5083 18.7692C51.8359 18.628 52.0268 18.4466 51.967 18.052Z" fill="white"/>
</svg>
