<svg width="153" height="51" viewBox="0 0 153 51" fill="none" xmlns="http://www.w3.org/2000/svg">
<path d="M8.10742 25.6579V30.4973L19.2194 41.7222V14.4175L8.10742 25.6579Z" fill="white"/>
<path d="M8.10742 6.98047V23.4777L19.2194 12.2992H19.2343L20.6643 13.7371V16.1645L22.0943 17.6333V15.2368L23.5093 16.6902V19.0867L24.9244 20.5401V18.1436L26.3395 19.5969V21.9934L27.7545 23.4313V21.0503L28.9313 22.3181V31.9969L30.3314 30.6982V6.98047H8.10742Z" fill="white"/>
<path d="M22.0801 20.2613L21.38 19.5346L20.665 18.7925V20.0758V21.3436L21.38 22.0858L22.095 22.8124V21.5291L22.0801 20.2613Z" fill="white"/>
<path d="M23.5098 21.7148V22.9981V24.2814L24.2248 25.0081L24.9248 25.7348V24.4515V23.1837L24.2248 22.457L23.5098 21.7148Z" fill="white"/>
<path d="M26.3398 24.6372V25.905V27.1883L27.0548 27.8995L27.7549 28.6262V27.3584V26.0906L27.0548 25.3639L26.3398 24.6372Z" fill="white"/>
<path d="M19.1901 50.875L3.31152 34.9962V0.6875H35.2325V34.9962L19.1901 50.875ZM4.80107 34.3005L19.1901 48.695L33.7429 34.3005V2.37279H4.80107V34.3005Z" fill="white"/>
<path d="M8.10742 25.6579V30.4973L19.2194 41.7222V14.4175L8.10742 25.6579Z" fill="white"/>
<path d="M8.10742 6.98047V23.4777L19.2194 12.2992H19.2343L20.6643 13.7371V16.1645L22.0943 17.6333V15.2368L23.5093 16.6902V19.0867L24.9244 20.5401V18.1436L26.3395 19.5969V21.9934L27.7545 23.4313V21.0503L28.9313 22.3181V31.9969L30.3314 30.6982V6.98047H8.10742Z" fill="white"/>
<path d="M22.0801 20.2613L21.38 19.5346L20.665 18.7925V20.0758V21.3436L21.38 22.0858L22.095 22.8124V21.5291L22.0801 20.2613Z" fill="white"/>
<path d="M23.5098 21.7148V22.9981V24.2814L24.2248 25.0081L24.9248 25.7348V24.4515V23.1837L24.2248 22.457L23.5098 21.7148Z" fill="white"/>
<path d="M26.3398 24.6372V25.905V27.1883L27.0548 27.8995L27.7549 28.6262V27.3584V26.0906L27.0548 25.3639L26.3398 24.6372Z" fill="white"/>
<path d="M19.1901 50.875L3.31152 34.9962V0.6875H35.2325V34.9962L19.1901 50.875ZM4.80107 34.3005L19.1901 48.695L33.7429 34.3005V2.37279H4.80107V34.3005Z" fill="white"/>
<path d="M48.4019 17.4134V22.0397H55.4745V24.4288H48.4019V30.2497H45.6816V15.0459H56.3742V17.4134H48.4019Z" fill="white"/>
<path d="M63.26 30.4018C62.13 30.4018 61.1117 30.1484 60.2049 29.6416C59.2982 29.1348 58.5868 28.4325 58.0706 27.5348C57.5684 26.6225 57.3173 25.5945 57.3173 24.4506C57.3173 23.3066 57.5684 22.2858 58.0706 21.3881C58.5868 20.4903 59.2982 19.788 60.2049 19.2813C61.1117 18.7745 62.13 18.5211 63.26 18.5211C64.4039 18.5211 65.4292 18.7745 66.3359 19.2813C67.2426 19.788 67.9471 20.4903 68.4493 21.3881C68.9655 22.2858 69.2235 23.3066 69.2235 24.4506C69.2235 25.5945 68.9655 26.6225 68.4493 27.5348C67.9471 28.4325 67.2426 29.1348 66.3359 29.6416C65.4292 30.1484 64.4039 30.4018 63.26 30.4018ZM63.26 28.0778C64.2225 28.0778 65.0176 27.7447 65.6454 27.0786C66.2731 26.4126 66.587 25.5365 66.587 24.4506C66.587 23.3646 66.2731 22.4885 65.6454 21.8225C65.0176 21.1564 64.2225 20.8234 63.26 20.8234C62.2974 20.8234 61.5023 21.1564 60.8745 21.8225C60.2607 22.4885 59.9538 23.3646 59.9538 24.4506C59.9538 25.5365 60.2607 26.4126 60.8745 27.0786C61.5023 27.7447 62.2974 28.0778 63.26 28.0778Z" fill="white"/>
<path d="M74.0055 20.3455C74.7588 19.1292 76.084 18.5211 77.9812 18.5211V21.1057C77.758 21.0623 77.5558 21.0406 77.3744 21.0406C76.3561 21.0406 75.5609 21.3519 74.989 21.9745C74.417 22.5827 74.1311 23.4659 74.1311 24.6243V30.2497H71.5155V18.6514H74.0055V20.3455Z" fill="white"/>
<path d="M87.1164 29.6199C86.8095 29.8805 86.4328 30.076 85.9864 30.2063C85.554 30.3366 85.0936 30.4018 84.6054 30.4018C83.3778 30.4018 82.4292 30.0687 81.7596 29.4027C81.09 28.7366 80.7552 27.7664 80.7552 26.4922V20.9102H78.9138V18.7383H80.7552V16.0884H83.3708V18.7383H86.3631V20.9102H83.3708V26.4271C83.3708 26.9918 83.5034 27.4262 83.7684 27.7302C84.0335 28.0198 84.4171 28.1646 84.9193 28.1646C85.5052 28.1646 85.9934 28.0054 86.384 27.6868L87.1164 29.6199Z" fill="white"/>
<path d="M91.5488 20.3455C92.3021 19.1292 93.6274 18.5211 95.5246 18.5211V21.1057C95.3014 21.0623 95.0991 21.0406 94.9177 21.0406C93.8994 21.0406 93.1043 21.3519 92.5323 21.9745C91.9604 22.5827 91.6744 23.4659 91.6744 24.6243V30.2497H89.0588V18.6514H91.5488V20.3455Z" fill="white"/>
<path d="M107.936 24.5157C107.936 24.7039 107.922 24.9718 107.894 25.3193H99.1269C99.2803 26.1737 99.6779 26.8542 100.32 27.361C100.975 27.8533 101.784 28.0995 102.747 28.0995C103.974 28.0995 104.986 27.6796 105.781 26.8397L107.183 28.5121C106.681 29.1348 106.046 29.6054 105.279 29.9239C104.512 30.2425 103.647 30.4018 102.684 30.4018C101.457 30.4018 100.375 30.1484 99.4408 29.6416C98.5061 29.1348 97.7807 28.4325 97.2646 27.5348C96.7624 26.6225 96.5113 25.5945 96.5113 24.4506C96.5113 23.3211 96.7554 22.3075 97.2437 21.4098C97.7459 20.4976 98.4364 19.788 99.3152 19.2813C100.194 18.7745 101.185 18.5211 102.287 18.5211C103.375 18.5211 104.344 18.7745 105.195 19.2813C106.06 19.7736 106.73 20.4758 107.204 21.3881C107.692 22.2858 107.936 23.3284 107.936 24.5157ZM102.287 20.693C101.45 20.693 100.738 20.9537 100.152 21.4749C99.5803 21.9817 99.2315 22.6623 99.106 23.5166H105.446C105.335 22.6768 104.993 21.9962 104.421 21.4749C103.849 20.9537 103.137 20.693 102.287 20.693Z" fill="white"/>
<path d="M113.692 30.4018C112.785 30.4018 111.899 30.2787 111.035 30.0325C110.17 29.7864 109.479 29.4751 108.963 29.0986L109.967 27.0352C110.47 27.3827 111.069 27.6651 111.767 27.8823C112.478 28.085 113.176 28.1864 113.859 28.1864C115.422 28.1864 116.203 27.7592 116.203 26.9049C116.203 26.4994 116.001 26.2171 115.596 26.0578C115.206 25.8985 114.571 25.7465 113.692 25.6017C112.771 25.4569 112.018 25.2904 111.432 25.1021C110.86 24.9139 110.358 24.5881 109.926 24.1248C109.507 23.6469 109.298 22.9881 109.298 22.1483C109.298 21.0478 109.737 20.1718 110.616 19.5202C111.509 18.8541 112.709 18.5211 114.215 18.5211C114.982 18.5211 115.75 18.6152 116.517 18.8034C117.284 18.9772 117.912 19.2161 118.4 19.5202L117.396 21.5835C116.447 21.0044 115.38 20.7148 114.194 20.7148C113.427 20.7148 112.841 20.8378 112.437 21.084C112.046 21.3157 111.851 21.627 111.851 22.0179C111.851 22.4523 112.06 22.7637 112.478 22.9519C112.911 23.1256 113.573 23.2922 114.466 23.4514C115.359 23.5962 116.091 23.7628 116.663 23.951C117.235 24.1392 117.724 24.4578 118.128 24.9067C118.547 25.3555 118.756 25.9927 118.756 26.818C118.756 27.904 118.302 28.7728 117.396 29.4244C116.489 30.076 115.254 30.4018 113.692 30.4018Z" fill="white"/>
<path d="M124.252 30.4018C123.345 30.4018 122.459 30.2787 121.594 30.0325C120.729 29.7864 120.039 29.4751 119.523 29.0986L120.527 27.0352C121.029 27.3827 121.629 27.6651 122.327 27.8823C123.038 28.085 123.736 28.1864 124.419 28.1864C125.982 28.1864 126.763 27.7592 126.763 26.9049C126.763 26.4994 126.56 26.2171 126.156 26.0578C125.765 25.8985 125.131 25.7465 124.252 25.6017C123.331 25.4569 122.578 25.2904 121.992 25.1021C121.42 24.9139 120.918 24.5881 120.485 24.1248C120.067 23.6469 119.858 22.9881 119.858 22.1483C119.858 21.0478 120.297 20.1718 121.176 19.5202C122.069 18.8541 123.268 18.5211 124.775 18.5211C125.542 18.5211 126.309 18.6152 127.077 18.8034C127.844 18.9772 128.472 19.2161 128.96 19.5202L127.955 21.5835C127.007 21.0044 125.94 20.7148 124.754 20.7148C123.987 20.7148 123.401 20.8378 122.996 21.084C122.606 21.3157 122.41 21.627 122.41 22.0179C122.41 22.4523 122.62 22.7637 123.038 22.9519C123.471 23.1256 124.133 23.2922 125.026 23.4514C125.919 23.5962 126.651 23.7628 127.223 23.951C127.795 24.1392 128.283 24.4578 128.688 24.9067C129.106 25.3555 129.316 25.9927 129.316 26.818C129.316 27.904 128.862 28.7728 127.955 29.4244C127.049 30.076 125.814 30.4018 124.252 30.4018Z" fill="white"/>
<path d="M141.11 26.7311H133.786L132.342 30.2497H129.538L136.13 15.0459H138.808L145.42 30.2497H142.575L141.11 26.7311ZM140.21 24.5157L137.448 17.8695L134.707 24.5157H140.21Z" fill="white"/>
<path d="M147.074 15.0459H149.794V30.2497H147.074V15.0459Z" fill="white"/>
</svg>
