<svg width="40" height="43" viewBox="0 0 40 43" fill="none" xmlns="http://www.w3.org/2000/svg">
<g clip-path="url(#clip0)">
<path d="M19.9224 1.45097V41.3517C19.9224 41.424 19.8554 41.4781 19.7829 41.4661C19.6923 41.451 19.6039 41.4203 19.5221 41.3734C18.311 40.6925 17.2145 40.0165 16.2018 39.3485C14.9634 38.5332 13.8514 37.7312 12.8065 36.9412C11.4704 35.9312 10.3242 35.0017 9.34242 34.1561C6.63465 31.8242 5.18046 30.1331 4.45866 29.1685C4.40222 29.0945 4.35107 29.024 4.30309 28.9587C2.82693 26.9755 1.90137 24.0849 1.90137 20.8705V7.57479C1.90137 7.30468 2.07764 7.06296 2.341 6.97756L8.49739 4.9709C8.91314 4.83678 9.34242 5.14048 9.34242 5.57V9.07294C9.34242 9.50246 9.77192 9.80615 10.1875 9.67016L15.7622 7.85319C16.0241 7.76778 16.2018 7.52607 16.2018 7.25596V2.91574C16.2018 2.6446 16.3791 2.40392 16.6417 2.31852L19.5614 1.36888C19.6284 1.3467 19.6978 1.33053 19.7675 1.32099C19.8489 1.3098 19.9224 1.37033 19.9224 1.45097Z" stroke="white" stroke-width="0.845454" stroke-miterlimit="10"/>
<path d="M34.0725 24.748C34.0725 24.9972 33.8256 25.1746 33.5836 25.0994L31.1386 24.3419C30.7887 24.2337 30.551 23.9151 30.551 23.5554V17.2301C30.551 16.9809 30.7976 16.8035 31.0398 16.8787L33.4849 17.6362C33.8347 17.7446 34.0725 18.0628 34.0725 18.4227V24.748ZM27.1573 23.2536C27.1573 23.5026 26.9106 23.68 26.6684 23.605L24.2234 22.8475C23.8736 22.7391 23.6358 22.4207 23.6358 22.061V15.7355C23.6358 15.4865 23.8827 15.3091 24.1249 15.3841L26.5697 16.1416C26.9195 16.25 27.1573 16.5684 27.1573 16.9283V23.2536ZM37.5033 6.97752L31.347 4.97273C30.9314 4.83695 30.5019 5.14064 30.5019 5.56996V9.0731C30.5019 9.50263 30.0726 9.80611 29.6569 9.67033L24.0822 7.85336C23.8188 7.76774 23.6425 7.52624 23.6425 7.25613V2.91591C23.6425 2.6458 23.4646 2.4043 23.2029 2.31869L20.2831 1.36905C20.2159 1.34687 20.1468 1.3307 20.077 1.32116C19.9957 1.30997 19.9221 1.3705 19.9221 1.45114V41.3518C19.9221 41.4238 19.9891 41.4783 20.0616 41.4661C20.1519 41.4507 20.2398 41.4204 20.3222 41.3736C21.5336 40.6926 22.6282 40.0164 23.6425 39.3487C24.8811 38.5334 25.9929 37.7314 27.0381 36.9411C28.3741 35.9312 29.5201 35.0018 30.5019 34.1563C33.2099 31.8244 34.6639 30.1332 35.3859 29.1685C35.4421 29.0947 35.4937 29.0242 35.5415 28.9587C37.0178 26.9756 37.943 24.0851 37.943 20.8705V7.57495C37.943 7.30464 37.7652 7.06314 37.5033 6.97752" fill="white"/>
<path d="M34.0725 24.748C34.0725 24.9972 33.8256 25.1746 33.5836 25.0994L31.1386 24.3419C30.7887 24.2337 30.551 23.9151 30.551 23.5554V17.2301C30.551 16.9809 30.7976 16.8035 31.0398 16.8787L33.4849 17.6362C33.8347 17.7446 34.0725 18.0628 34.0725 18.4227V24.748ZM27.1573 23.2536C27.1573 23.5026 26.9106 23.68 26.6684 23.605L24.2234 22.8475C23.8736 22.7391 23.6358 22.4207 23.6358 22.061V15.7355C23.6358 15.4865 23.8827 15.3091 24.1249 15.3841L26.5697 16.1416C26.9195 16.25 27.1573 16.5684 27.1573 16.9283V23.2536ZM37.5033 6.97752L31.347 4.97273C30.9314 4.83695 30.5019 5.14064 30.5019 5.56996V9.0731C30.5019 9.50263 30.0726 9.80611 29.6569 9.67033L24.0822 7.85336C23.8188 7.76774 23.6425 7.52624 23.6425 7.25613V2.91591C23.6425 2.6458 23.4646 2.4043 23.2029 2.31869L20.2831 1.36905C20.2159 1.34687 20.1468 1.3307 20.077 1.32116C19.9957 1.30997 19.9221 1.3705 19.9221 1.45114V41.3518C19.9221 41.4238 19.9891 41.4783 20.0616 41.4661C20.1519 41.4507 20.2398 41.4204 20.3222 41.3736C21.5336 40.6926 22.6282 40.0164 23.6425 39.3487C24.8811 38.5334 25.9929 37.7314 27.0381 36.9411C28.3741 35.9312 29.5201 35.0018 30.5019 34.1563C33.2099 31.8244 34.6639 30.1332 35.3859 29.1685C35.4421 29.0947 35.4937 29.0242 35.5415 28.9587C37.0178 26.9756 37.943 24.0851 37.943 20.8705V7.57495C37.943 7.30464 37.7652 7.06314 37.5033 6.97752V6.97752Z" stroke="white" stroke-width="0.845454" stroke-miterlimit="10"/>
</g>
<defs>
<clipPath id="clip0">
<rect width="42.2727" height="41.4598" fill="white" transform="translate(-1.36353 0.671875)"/>
</clipPath>
</defs>
</svg>
