<svg width="155" height="45" viewBox="0 0 155 45" fill="none" xmlns="http://www.w3.org/2000/svg">
<path d="M56.6797 30.4645C55.5709 30.4645 54.4964 30.3011 53.4561 29.9743C52.4294 29.6475 51.615 29.2142 51.0127 28.6743L51.9367 26.5217C52.5253 27.0048 53.2439 27.4026 54.0926 27.7152C54.9549 28.0136 55.8173 28.1627 56.6797 28.1627C57.7473 28.1627 58.5413 27.9851 59.0614 27.6299C59.5953 27.2747 59.8622 26.8059 59.8622 26.2233C59.8622 25.7971 59.7116 25.449 59.4105 25.179C59.123 24.8948 58.7534 24.6746 58.3017 24.5183C57.85 24.362 57.234 24.1844 56.4538 23.9855C55.3587 23.7155 54.469 23.4456 53.7846 23.1756C53.1139 22.9057 52.5321 22.4865 52.0393 21.9182C51.5602 21.3356 51.3207 20.5542 51.3207 19.5738C51.3207 18.7497 51.5329 18.0038 51.9572 17.336C52.3952 16.654 53.0454 16.1141 53.9078 15.7162C54.7838 15.3184 55.8515 15.1195 57.1108 15.1195C57.9869 15.1195 58.8493 15.2332 59.6979 15.4605C60.5466 15.6878 61.2789 16.0146 61.8949 16.4409L61.0531 18.5934C60.4234 18.2098 59.7664 17.9185 59.082 17.7196C58.3975 17.5207 57.7337 17.4212 57.0903 17.4212C56.0363 17.4212 55.2492 17.606 54.7291 17.9754C54.2226 18.3448 53.9694 18.835 53.9694 19.4459C53.9694 19.8722 54.1131 20.2203 54.4006 20.4902C54.7017 20.7602 55.0781 20.9733 55.5298 21.1296C55.9816 21.2859 56.5975 21.4635 57.3778 21.6624C58.4454 21.9182 59.3215 22.1881 60.0059 22.4723C60.6903 22.7423 61.2721 23.1614 61.7512 23.7297C62.244 24.2981 62.4903 25.0653 62.4903 26.0315C62.4903 26.8556 62.2713 27.6015 61.8333 28.2693C61.409 28.9371 60.7588 29.4699 59.8827 29.8678C59.0067 30.2656 57.939 30.4645 56.6797 30.4645Z" fill="white"/>
<path d="M69.3668 25.3708L67.4573 27.2463V30.2514H64.8907V14.4375H67.4573V23.9855L72.7752 18.8705H75.8551L71.2763 23.6445L76.2862 30.2514H73.1653L69.3668 25.3708Z" fill="white"/>
<path d="M87.5887 18.8705L82.4556 31.1678C81.9765 32.4039 81.3948 33.2706 80.7103 33.7679C80.0259 34.2794 79.1978 34.5352 78.2259 34.5352C77.6784 34.5352 77.1377 34.4428 76.6039 34.2581C76.07 34.0734 75.632 33.8177 75.2898 33.4909L76.3164 31.5301C76.5628 31.7717 76.8502 31.9635 77.1788 32.1056C77.521 32.2476 77.8632 32.3187 78.2054 32.3187C78.6571 32.3187 79.0267 32.1979 79.3141 31.9564C79.6153 31.7148 79.889 31.3099 80.1354 30.7416L80.3202 30.294L75.5362 18.8705H78.2054L81.6548 27.2889L85.1248 18.8705H87.5887Z" fill="white"/>
<path d="M92.1084 17.6557V22.1952H99.0484V24.5396H92.1084V30.2514H89.4392V15.3326H99.9313V17.6557H92.1084Z" fill="white"/>
<path d="M106.893 30.4006C105.784 30.4006 104.785 30.1519 103.896 29.6546C103.006 29.1573 102.308 28.4682 101.801 27.5873C101.308 26.6922 101.062 25.6834 101.062 24.5609C101.062 23.4385 101.308 22.4368 101.801 21.5559C102.308 20.675 103.006 19.9859 103.896 19.4886C104.785 18.9913 105.784 18.7426 106.893 18.7426C108.016 18.7426 109.022 18.9913 109.912 19.4886C110.801 19.9859 111.493 20.675 111.985 21.5559C112.492 22.4368 112.745 23.4385 112.745 24.5609C112.745 25.6834 112.492 26.6922 111.985 27.5873C111.493 28.4682 110.801 29.1573 109.912 29.6546C109.022 30.1519 108.016 30.4006 106.893 30.4006ZM106.893 28.1201C107.838 28.1201 108.618 27.7933 109.234 27.1398C109.85 26.4862 110.158 25.6266 110.158 24.5609C110.158 23.4953 109.85 22.6357 109.234 21.9821C108.618 21.3285 107.838 21.0018 106.893 21.0018C105.949 21.0018 105.169 21.3285 104.553 21.9821C103.95 22.6357 103.649 23.4953 103.649 24.5609C103.649 25.6266 103.95 26.4862 104.553 27.1398C105.169 27.7933 105.949 28.1201 106.893 28.1201Z" fill="white"/>
<path d="M117.643 20.5329C118.382 19.3394 119.682 18.7426 121.544 18.7426V21.2788C121.325 21.2362 121.126 21.2149 120.948 21.2149C119.949 21.2149 119.169 21.5204 118.608 22.1313C118.046 22.7281 117.766 23.5948 117.766 24.7314V30.2514H115.199V18.8705H117.643V20.5329Z" fill="white"/>
<path d="M130.713 29.6333C130.412 29.8891 130.042 30.0809 129.604 30.2087C129.18 30.3366 128.728 30.4006 128.249 30.4006C127.045 30.4006 126.114 30.0738 125.457 29.4202C124.8 28.7666 124.471 27.8146 124.471 26.5643V21.087H122.664V18.9557H124.471V16.3556H127.038V18.9557H129.974V21.087H127.038V26.5004C127.038 27.0545 127.168 27.4808 127.428 27.7791C127.688 28.0633 128.064 28.2054 128.557 28.2054C129.132 28.2054 129.611 28.0491 129.994 27.7365L130.713 29.6333Z" fill="white"/>
<g clip-path="url(#clip0)">
<path d="M21.1731 2.5993V42.8714C21.1731 42.9446 21.1086 42.999 21.0401 42.9864C20.9534 42.9718 20.8688 42.9404 20.7922 42.8923C19.6372 42.2039 18.591 41.5219 17.6255 40.8481C16.4443 40.0259 15.3841 39.2162 14.3883 38.419C13.1144 37.4001 12.0219 36.4606 11.0846 35.6091C8.50247 33.2553 7.11567 31.548 6.4263 30.5751C6.37187 30.4998 6.3235 30.4286 6.27714 30.3638C4.87018 28.3615 3.9873 25.4448 3.9873 22.1997V8.77987C3.9873 8.50788 4.15461 8.26308 4.40657 8.1773L10.2783 6.15198C10.6754 6.01598 11.0846 6.32354 11.0846 6.75664V10.2926C11.0846 10.7257 11.4938 11.0333 11.8909 10.8952L17.2083 9.06233C17.4582 8.97655 17.6275 8.73175 17.6275 8.45975V4.07644C17.6275 3.80235 17.7968 3.55965 18.0468 3.47387L20.8285 2.51561C20.893 2.49259 20.9575 2.47794 21.024 2.46748C21.1026 2.45702 21.1731 2.5177 21.1731 2.5993Z" stroke="white" stroke-width="1.41" stroke-miterlimit="10"/>
<path d="M38.2408 7.87601L32.2642 5.81512C31.8611 5.67494 31.4439 5.98669 31.4439 6.42816V10.0269C31.4439 10.4683 31.0266 10.7801 30.6235 10.6399L25.2113 8.77359C24.9553 8.68572 24.784 8.43674 24.784 8.16056V3.70192C24.784 3.42365 24.6107 3.17676 24.3567 3.08889L21.5226 2.11389C21.4581 2.09087 21.3896 2.07414 21.3231 2.06367C21.2444 2.05321 21.1719 2.11389 21.1719 2.19758V43.1936C21.1719 43.2668 21.2364 43.3233 21.3069 43.3107C21.3936 43.294 21.4803 43.2647 21.5609 43.2166C22.7361 42.5178 23.8003 41.8231 24.784 41.1369C25.9874 40.3 27.0658 39.4756 28.0797 38.6638C29.3758 37.626 30.4884 36.672 31.4418 35.8016C34.0703 33.4059 35.4833 31.6672 36.1828 30.6776C36.2372 30.6023 36.2876 30.5291 36.3339 30.4621C37.7671 28.4242 38.6661 25.4553 38.6661 22.1516V8.48904C38.6681 8.21286 38.4968 7.96388 38.2408 7.87601ZM28.1966 24.5995C28.1966 24.8548 27.9567 25.0368 27.7229 24.9615L25.3484 24.1832C25.0098 24.0723 24.778 23.7438 24.778 23.3756V16.877C24.778 16.6217 25.0178 16.4397 25.2537 16.515L27.6281 17.2933C27.9668 17.4042 28.1986 17.7327 28.1986 18.1009V24.5995H28.1966ZM34.9109 26.1353C34.9109 26.3905 34.671 26.5747 34.4372 26.4972L32.0627 25.7189C31.724 25.608 31.4922 25.2795 31.4922 24.9113V18.4127C31.4922 18.1574 31.7321 17.9733 31.9659 18.0507L34.3404 18.8291C34.6791 18.9399 34.9109 19.2684 34.9109 19.6367V26.1353Z" fill="white" stroke="white" stroke-width="0.6" stroke-miterlimit="10"/>
</g>
<defs>
<clipPath id="clip0">
<rect width="41.0649" height="42.625" fill="white" transform="translate(0.675781 1.71875)"/>
</clipPath>
</defs>
</svg>
